SplineFontDB: 3.2
FontName: MFEKSans-Thin
FullName: MFEK Sans Thin
FamilyName: MFEK Sans Thin
Weight: Thin
Copyright: 
Version: 0.1
ItalicAngle: 0
UnderlinePosition: -200
UnderlineWidth: 100
Ascent: 1600
Descent: 400
InvalidEm: 0
LayerCount: 2
Layer: 0 0 "Back" 1
Layer: 1 0 "Fore" 0
XUID: [1021 31 -699969567 16487490]
FSType: 0
OS2Version: 0
OS2_WeightWidthSlopeOnly: 0
OS2_UseTypoMetrics: 1
CreationTime: 1460762150
ModificationTime: 1694476986
PfmFamily: 33
TTFWeight: 100
TTFWidth: 5
LineGap: 0
VLineGap: 0
OS2TypoAscent: 2500
OS2TypoAOffset: 0
OS2TypoDescent: -850
OS2TypoDOffset: 0
OS2TypoLinegap: 0
OS2WinAscent: 2500
OS2WinAOffset: 0
OS2WinDescent: 850
OS2WinDOffset: 0
HheadAscent: 2500
HheadAOffset: 0
HheadDescent: -850
HheadDOffset: 0
OS2CapHeight: 1500
OS2XHeight: 1040
OS2FamilyClass: 2053
OS2Vendor: 'it* '
OS2UnicodeRanges: 00000001.00000000.00000000.00000000
Lookup: 258 0 0 "kerning yeah boi" { "say cheese" [300,0,4] } ['kern' ('DFLT' <'dflt' > 'grek' <'dflt' > 'latn' <'dflt' > ) ]
MarkAttachClasses: 1
DEI: 91125
KernClass2: 30 23 "say cheese"
 73 A Agrave Aacute Acircumflex Atilde Adieresis Aring Amacron Abreve Aogonek
 96 D O Ograve Oacute Ocircumflex Otilde Odieresis Oslash Dcaron Dcroat Omacron Obreve Ohungarumlaut
 81 E AE Egrave Eacute Ecircumflex Edieresis Emacron Ebreve Edotaccent Eogonek Ecaron
 1 F
 39 G Gcircumflex Gbreve Gdotaccent uni0122
 104 J U Ugrave Uacute Ucircumflex Udieresis IJ Jcircumflex Utilde Umacron Ubreve Uring Uhungarumlaut Uogonek
 11 K X uni0136
 23 L Lacute uni013B Lslash
 1 P
 1 Q
 23 R Racute uni0156 Rcaron
 36 S Sacute Scircumflex Scedilla Scaron
 21 T uni0162 Tcaron Tbar
 1 V
 53 W Wcircumflex Wgrave Wacute Wdieresis uni1E86 uni1E88
 30 Y Ycircumflex Ydieresis Ygrave
 26 Z Zacute Zdotaccent Zcaron
 73 a agrave aacute acircumflex atilde adieresis aring amacron abreve aogonek

StartChar: ampersand
Encoding: 38 38 0
Width: 1280
VWidth: 1920
Flags: HMW
LayerCount: 2
Fore
SplineSet
1123 10 m 2
 558 734 l 2
 426 903 340 1030 340 1163 c 0
 340 1303 438 1435 645 1435 c 0
 832 1435 970 1343 970 1173 c 0
 970 990 845 868 637 776 c 0
 383 664 102 627 102 443 c 0
 102 354 127 294 176 219 c 2
 229 139 l 2
 285 54 406 -5 531 -5 c 4
 773 -5 994 246 1122 640 c 0
 1124 645 1128 648 1135 648 c 2
 1145 648 l 2
 1152 648 1154 645 1151 637 c 0
 1016 227 799 -35 531 -35 c 0
 395 -35 268 15 199 119 c 2
 146 199 l 2
 93 279 66 347 66 443 c 0
 66 652 379 695 617 806 c 0
 837 908 935 1012 935 1173 c 0
 935 1313 822 1405 645 1405 c 0
 468 1405 375 1292 375 1163 c 0
 375 1044 458 918 593 744 c 2
 1163 10 l 2
 1169 4 1167 0 1160 0 c 2
 1140 0 l 2
 1133 0 1128 3 1123 10 c 2
EndSplineSet
EndChar

StartChar: period
Encoding: 46 46 1
Width: 540
VWidth: 1920
Flags: HMW
LayerCount: 2
Fore
SplineSet
280 0 m 6
 260 0 l 6
 253 0 250 3 250 10 c 6
 250 200 l 6
 250 207 253 210 260 210 c 6
 280 210 l 6
 287 210 290 207 290 200 c 6
 290 10 l 6
 290 3 287 0 280 0 c 6
EndSplineSet
EndChar

StartChar: zero
Encoding: 48 48 2
Width: 1150
VWidth: 1920
Flags: HMW
LayerCount: 2
Fore
SplineSet
180 488 m 258
 180 913 l 258
 180 1239 293 1435 575 1435 c 256
 857 1435 970 1239 970 913 c 258
 970 488 l 258
 970 162 856 -35 575 -35 c 256
 294 -35 180 162 180 488 c 258
215 488 m 262
 215 190 311 -5 575 -5 c 256
 839 -5 935 190 935 488 c 258
 935 913 l 258
 935 1211 839 1405 575 1405 c 256
 311 1405 215 1211 215 913 c 262
 215 488 l 262
EndSplineSet
EndChar

StartChar: one
Encoding: 49 49 3
Width: 600
VWidth: 1920
Flags: HMW
LayerCount: 2
Fore
SplineSet
291 1376 m 4
 299 1384 298 1400 299 1440 c 4
 299 1447 299 1450 306 1450 c 6
 308 1450 l 6
 315 1450 315 1447 315 1440 c 6
 315 10 l 6
 315 3 312 0 305 0 c 6
 295 0 l 6
 288 0 285 3 285 10 c 6
 285 1364 l 6
 285 1371 288 1373 291 1376 c 4
EndSplineSet
EndChar

StartChar: two
Encoding: 50 50 4
Width: 1080
VWidth: 1920
Flags: HMW
LayerCount: 2
Fore
SplineSet
160 40 m 258
 160 524 870 636 870 1033 c 258
 870 1068 l 258
 870 1238 766 1405 559 1405 c 256
 309 1405 220 1255 220 1002 c 258
 220 912 l 2
 220 905 217 902 210 902 c 2
 195 902 l 2
 188 902 185 905 185 912 c 2
 185 1002 l 258
 185 1276 282 1435 559 1435 c 256
 786 1435 905 1253 905 1073 c 258
 905 1028 l 258
 905 622 195 486 195 45 c 262
 195 35 l 261
 990 35 l 2
 997 35 1000 32 1000 25 c 2
 1000 10 l 2
 1000 3 997 0 990 0 c 2
 165 0 l 6
 158 0 160 3 160 10 c 2
 160 40 l 258
EndSplineSet
EndChar

StartChar: three
Encoding: 51 51 5
Width: 1100
VWidth: 1920
Flags: HMW
LayerCount: 2
Fore
SplineSet
170 407 m 2
 180 407 l 2
 187 407 190 404 190 397 c 2
 190 327 l 2
 190 107 301 -5 530 -5 c 0
 807 -5 905 142 905 342 c 6
 905 393 l 2
 905 593 757 740 530 740 c 2
 450 740 l 2
 443 740 440 743 440 750 c 2
 440 760 l 2
 440 767 443 770 450 770 c 2
 510 770 l 2
 747 770 850 893 850 1053 c 2
 850 1088 l 2
 850 1278 771 1405 544 1405 c 0
 334 1405 225 1265 225 1052 c 2
 225 962 l 2
 225 955 222 952 215 952 c 2
 205 952 l 2
 198 952 195 955 195 962 c 2
 195 1052 l 2
 195 1286 317 1435 544 1435 c 0
 771 1435 885 1313 885 1083 c 2
 885 1058 l 2
 885 878 767 750 510 750 c 1
 530 760 l 1
 787 760 935 612 935 392 c 2
 935 337 l 6
 935 127 827 -35 530 -35 c 4
 278 -35 160 99 160 327 c 2
 160 397 l 2
 160 404 163 407 170 407 c 2
EndSplineSet
EndChar

StartChar: four
Encoding: 52 52 6
Width: 1045
VWidth: 1920
Flags: HMW
LayerCount: 2
Fore
SplineSet
950 410 m 2
 950 400 l 2
 950 393 947 390 940 390 c 2
 755 390 l 261
 755 10 l 6
 755 3 752 0 745 0 c 6
 730 0 l 2
 723 0 720 3 720 10 c 2
 720 390 l 257
 60 390 l 2
 53 390 50 393 50 400 c 2
 50 430 l 2
 50 437 52 443 57 450 c 2
 703 1390 l 2
 707 1395 713 1400 720 1400 c 2
 745 1400 l 6
 752 1400 755 1397 755 1390 c 6
 755 420 l 261
 940 420 l 2
 947 420 950 417 950 410 c 2
720 420 m 257
 720 1361 l 257
 75 420 l 257
 720 420 l 257
EndSplineSet
EndChar

StartChar: five
Encoding: 53 53 7
Width: 1100
VWidth: 1920
Flags: HMW
LayerCount: 2
Fore
SplineSet
190 368 m 2
 200 368 l 2
 207 368 211 365 211 359 c 0
 224 122 318 -5 535 -5 c 0
 784 -5 965 157 965 428 c 2
 965 493 l 2
 965 753 804 925 610 925 c 0
 474 925 334 815 246 664 c 0
 241 656 237 653 230 653 c 2
 220 653 l 2
 213 653 210 655 211 663 c 2
 320 1390 l 2
 321 1397 324 1400 331 1400 c 2
 931 1400 l 2
 938 1400 941 1397 941 1390 c 2
 941 1389 l 6
 941 1373 911 1370 741 1370 c 2
 344 1370 l 1
 241 675 l 1
 228 675 l 1
 303 818 450 955 610 955 c 0
 810 955 1000 790 1000 493 c 2
 1000 428 l 2
 1000 131 805 -35 535 -35 c 0
 301 -35 197 101 181 358 c 0
 181 365 183 368 190 368 c 2
EndSplineSet
EndChar

StartChar: six
Encoding: 54 54 8
Width: 1229
VWidth: 1920
Flags: HMW
LayerCount: 2
Fore
SplineSet
640 860 m 260
 400 860 230 665 230 492 c 262
 230 432 l 261
 215 502 l 261
 215 666 373 890 640 890 c 260
 897 890 1039 731 1039 457 c 262
 1039 407 l 262
 1039 129 921 -35 629 -35 c 260
 292 -35 205 197 205 457 c 262
 205 843 l 262
 205 1223 303 1435 630 1435 c 260
 927 1435 1004 1266 1004 1082 c 262
 1004 1052 l 6
 1004 1045 1001 1042 994 1042 c 6
 984 1042 l 6
 977 1042 974 1045 974 1052 c 6
 974 1082 l 262
 974 1245 910 1405 630 1405 c 260
 323 1405 230 1198 230 838 c 262
 230 462 l 262
 230 202 322 -5 629 -5 c 260
 908 -5 1009 157 1009 417 c 262
 1009 457 l 262
 1009 710 880 860 640 860 c 260
EndSplineSet
EndChar

StartChar: seven
Encoding: 55 55 9
Width: 1015
VWidth: 1920
Flags: HMW
LayerCount: 2
Fore
SplineSet
1011 1390 m 2
 359 10 l 2
 356 3 352 0 345 0 c 2
 315 0 l 6
 308 0 306 3 309 10 c 6
 975 1370 l 257
 85 1370 l 2
 78 1370 75 1373 75 1380 c 2
 75 1390 l 2
 75 1397 78 1400 85 1400 c 2
 1005 1400 l 2
 1012 1400 1014 1396 1011 1390 c 2
EndSplineSet
EndChar

StartChar: eight
Encoding: 56 56 10
Width: 1182
VWidth: 1920
Flags: HMW
LayerCount: 2
Fore
SplineSet
591 -5 m 256
 851 -5 957 116 957 342 c 258
 957 397 l 258
 957 604 852 720 591 720 c 256
 330 720 225 604 225 397 c 258
 225 342 l 258
 225 116 331 -5 591 -5 c 256
591 750 m 256
 841 750 907 857 907 1053 c 258
 907 1088 l 258
 907 1295 809 1405 591 1405 c 260
 373 1405 275 1295 275 1088 c 258
 275 1053 l 258
 275 857 341 750 591 750 c 256
622 740 m 257
 872 740 987 624 987 392 c 258
 987 347 l 258
 987 100 869 -35 591 -35 c 256
 313 -35 195 100 195 347 c 258
 195 392 l 258
 195 624 310 740 560 740 c 257
 562 730 l 257
 326 735 245 837 245 1058 c 258
 245 1083 l 258
 245 1304 353 1435 591 1435 c 256
 829 1435 937 1304 937 1083 c 258
 937 1058 l 258
 937 837 856 735 620 730 c 257
 622 740 l 257
EndSplineSet
EndChar

StartChar: nine
Encoding: 57 57 11
Width: 1169
VWidth: 1920
Flags: HMW
LayerCount: 2
Fore
SplineSet
559 540 m 260
 799 540 969 735 969 908 c 262
 969 968 l 261
 984 898 l 261
 984 734 826 510 559 510 c 260
 302 510 160 669 160 943 c 262
 160 993 l 262
 160 1271 278 1435 570 1435 c 260
 907 1435 994 1203 994 943 c 262
 994 557 l 262
 994 177 896 -35 569 -35 c 260
 272 -35 195 134 195 318 c 262
 195 348 l 6
 195 355 198 358 205 358 c 6
 215 358 l 6
 222 358 225 355 225 348 c 6
 225 318 l 262
 225 155 289 -5 569 -5 c 260
 876 -5 969 202 969 562 c 262
 969 938 l 262
 969 1198 877 1405 570 1405 c 260
 291 1405 190 1243 190 983 c 262
 190 943 l 262
 190 690 319 540 559 540 c 260
EndSplineSet
EndChar

StartChar: A
Encoding: 65 65 12
Width: 1166
VWidth: 1920
Flags: HW
AnchorPoint: "ogonek" 1040 0 basechar 0
AnchorPoint: "bottom" 565 0 basechar 0
AnchorPoint: "top" 574 1400 basechar 0
LayerCount: 2
Fore
SplineSet
263.7734375 510 m 257
 875.7734375 510 l 257
 875.7734375 480 l 257
 263.7734375 480 l 257
 263.7734375 510 l 257
569.7734375 1355 m 257
 122.473632812 10 l 258
 120.673828125 4 117.073242188 0 110.7734375 0 c 258
 90.7734375 0 l 258
 83.7734375 0 81.7734375 4 83.7734375 10 c 258
 553.573242188 1390 l 258
 555.373046875 1396 558.973632812 1400 565.2734375 1400 c 258
 574.2734375 1400 l 258
 580.573242188 1400 584.173828125 1396 585.973632812 1390 c 258
 1064.7734375 10 l 258
 1066.7734375 4 1064.7734375 0 1057.7734375 0 c 258
 1037.7734375 0 l 258
 1031.47363281 0 1027.87304688 3 1026.07324219 10 c 258
 569.7734375 1355 l 257
EndSplineSet
EndChar

StartChar: B
Encoding: 66 66 13
Width: 1185
VWidth: 1920
Flags: HW
AnchorPoint: "top" 574 1400 basechar 0
AnchorPoint: "bottom" 595 0 basechar 0
LayerCount: 2
Fore
SplineSet
273 730 m 257
 674 730 l 258
 878 730 1019 853 1019 1043 c 258
 1019 1068 l 258
 1019 1288 887 1370 674 1370 c 258
 273 1370 l 257
 273 730 l 257
692 720 m 257
 923 720 1099 622 1099 372 c 258
 1099 347 l 258
 1099 67 923 0 692 0 c 258
 253 0 l 258
 246 0 243 3 243 10 c 258
 243 1390 l 258
 243 1397 246 1400 253 1400 c 258
 674 1400 l 258
 905 1400 1054 1313 1054 1063 c 258
 1054 1048 l 258
 1054 828 905 710 674 710 c 257
 692 720 l 257
692 700 m 258
 273 700 l 257
 273 30 l 257
 692 30 l 258
 905 30 1066 92 1066 342 c 258
 1066 377 l 258
 1066 597 905 700 692 700 c 258
EndSplineSet
EndChar

StartChar: C
Encoding: 67 67 14
Width: 1288
VWidth: 1920
Flags: HW
AnchorPoint: "top" 674 1400 basechar 0
AnchorPoint: "bottom" 655 -25 basechar 0
LayerCount: 2
Fore
SplineSet
1185 498 m 256
 1183.77501453 461.250435794 1174.47682449 424.939103475 1168.296875 388 c 4
 1136.9609375 200.697265625 922.897302038 -35 668 -35 c 256
 300 -35 135 238 135 618 c 258
 135 783 l 258
 135 1163 320 1435 668 1435 c 256
 1023.37529527 1435 1137.25168528 1192.79066629 1152.68652635 1037 c 4
 1154.36791089 1020.02904345 1154.65352736 1000.37133829 1155 973 c 256
 1155 964 1152 963 1145 963 c 258
 1136 963 l 258
 1129 963 1125.07316831 964.000297427 1125 973 c 256
 1123 1219 958 1405 668 1405 c 256
 338 1405 165 1143 165 783 c 258
 165 618 l 258
 165 258 329 -5 668 -5 c 256
 881 -5 1138 195 1155 498 c 256
 1155.50726015 507.041166249 1158 508 1165 508 c 258
 1175 508 l 258
 1182 508 1185 507 1185 498 c 256
EndSplineSet
EndChar

StartChar: D
Encoding: 68 68 15
Width: 1273
VWidth: 1920
Flags: HW
AnchorPoint: "top" 604 1400 basechar 0
AnchorPoint: "bottom" 585 0 basechar 0
LayerCount: 2
Fore
SplineSet
638 0 m 258
 235 0 l 258
 228 0 225 3 225 10 c 258
 225 1390 l 258
 225 1397 228 1400 235 1400 c 258
 638 1400 l 258
 921 1400 1126 1159 1126 783 c 258
 1126 618 l 258
 1126 242 957 0 638 0 c 258
638 30 m 258
 930 30 1096 250 1096 618 c 258
 1096 783 l 258
 1096 1141 903 1370 638 1370 c 258
 255 1370 l 257
 255 30 l 257
 638 30 l 258
EndSplineSet
EndChar

StartChar: E
Encoding: 69 69 16
Width: 1204
VWidth: 1920
Flags: HW
AnchorPoint: "ogonek" 1070 0 basechar 0
AnchorPoint: "top" 634 1400 basechar 0
AnchorPoint: "bottom" 635 0 basechar 0
LayerCount: 2
Fore
SplineSet
255 730 m 257
 813 730 l 258
 819 730 822 727 822 720 c 258
 822 710 l 258
 822 703 819 700 813 700 c 258
 255 700 l 257
 255 30 l 257
 1079 30 l 258
 1086 30 1089 27 1089 20 c 258
 1089 10 l 258
 1089 3 1086 0 1079 0 c 258
 235 0 l 258
 228 0 225 3 225 10 c 258
 225 1390 l 258
 225 1397 228 1400 235 1400 c 258
 1059 1400 l 258
 1066 1400 1069 1397 1069 1390 c 258
 1069 1380 l 258
 1069 1373 1066 1370 1059 1370 c 258
 255 1370 l 257
 255 730 l 257
EndSplineSet
EndChar

StartChar: F
Encoding: 70 70 17
Width: 1105
VWidth: 1920
Flags: HW
AnchorPoint: "top" 644 1400 basechar 0
AnchorPoint: "bottom" 645 0 basechar 0
LayerCount: 2
Fore
SplineSet
255 730 m 261
 732 730 l 262
 740 730 741 729 741 720 c 262
 741 710 l 262
 741 701 740 700 732 700 c 262
 255 700 l 261
 255 10 l 258
 255 1 254 0 245 0 c 258
 235 0 l 258
 226 0 225 1 225 10 c 258
 225 1390 l 258
 225 1397 228 1400 235 1400 c 258
 1016 1400 l 258
 1023 1400 1026 1397 1026 1390 c 258
 1026 1380 l 258
 1026 1373 1023 1370 1016 1370 c 258
 255 1370 l 257
 255 730 l 261
EndSplineSet
EndChar

StartChar: G
Encoding: 71 71 18
Width: 1266
VWidth: 1920
Flags: HW
AnchorPoint: "top" 644 1400 basechar 0
AnchorPoint: "bottom" 625 0 basechar 0
LayerCount: 2
Fore
SplineSet
718 635 m 2
 718 645 l 2
 718 652 721 655 727 655 c 2
 1115 655 l 2
 1122 655 1125 652 1125 645 c 2
 1125 10 l 2
 1125 3 1122 0 1115 0 c 2
 1114 0 l 2
 1107 0 1103 3 1103 10 c 2
 1096 590 l 1
 1115 620 l 1
 1096 230 904 -35 610 -35 c 0
 271 -35 95 238 95 618 c 2
 95 783 l 2
 95 1163 290 1435 638 1435 c 0
 810 1435 965 1343 1043 1214 c 0
 1088.3828125 1138.94433594 1114 1050 1115 973 c 0
 1115 964 1112 963 1105 963 c 2
 1096 963 l 2
 1090 963 1087 964 1087 973 c 0
 1079 1210 887 1405 638 1405 c 0
 299 1405 125 1133 125 783 c 2
 125 618 l 2
 125 248 299 -5 620 -5 c 0
 814 -5 1070 152 1092 645 c 1
 1103 625 l 1
 727 625 l 2
 721 625 718 628 718 635 c 2
EndSplineSet
EndChar

StartChar: H
Encoding: 72 72 19
Width: 1271
VWidth: 1920
Flags: HW
AnchorPoint: "top" 624 1400 basechar 0
AnchorPoint: "bottom" 625 0 basechar 0
LayerCount: 2
Fore
SplineSet
1061 1400 m 2
 1071 1400 l 2
 1078 1400 1081 1397 1081 1390 c 2
 1081 10 l 2
 1081 3 1078 0 1071 0 c 2
 1061 0 l 2
 1054 0 1051 3 1051 10 c 2
 1051 700 l 257
 237 700 l 257
 237 10 l 2
 237 3 234 0 227 0 c 2
 217 0 l 2
 210 0 207 3 207 10 c 2
 207 1390 l 2
 207 1397 210 1400 217 1400 c 10
 227 1400 l 18
 234 1400 237 1397 237 1390 c 10
 237 730 l 257
 1051 730 l 257
 1051 1390 l 2
 1051 1397 1054 1400 1061 1400 c 2
EndSplineSet
EndChar

StartChar: I
Encoding: 73 73 20
Width: 524
VWidth: 1920
Flags: HW
AnchorPoint: "ogonek" 250 0 basechar 0
AnchorPoint: "top" 249 1400 basechar 0
AnchorPoint: "bottom" 250 0 basechar 0
LayerCount: 2
Fore
SplineSet
244 1400 m 10
 254 1400 l 18
 261 1400 264 1397 264 1390 c 10
 264 10 l 18
 264 3 261 0 254 0 c 10
 244 0 l 18
 237 0 234 3 234 10 c 10
 234 1390 l 18
 234 1397 237 1400 244 1400 c 10
EndSplineSet
EndChar

StartChar: J
Encoding: 74 74 21
Width: 1137
VWidth: 1920
Flags: HW
AnchorPoint: "top" 893 1400 basechar 0
AnchorPoint: "bottom" 510 0 basechar 0
LayerCount: 2
Fore
SplineSet
883 1400 m 2
 903 1400 l 2
 910 1400 913 1397 913 1390 c 2
 913 538 l 258
 913 152 823 -35 498 -35 c 256
 202 -35 93 155 93 478 c 258
 93 653 l 2
 93 660 96 663 103 663 c 2
 118 663 l 2
 125 663 128 660 128 653 c 2
 128 478 l 258
 128 167 232 -5 496 -5 c 256
 801 -5 873 189 873 508 c 258
 873 1390 l 2
 873 1397 876 1400 883 1400 c 2
EndSplineSet
EndChar

StartChar: K
Encoding: 75 75 22
Width: 1179
VWidth: 1920
Flags: HW
AnchorPoint: "top" 574 1400 basechar 0
AnchorPoint: "bottom" 585 0 basechar 0
LayerCount: 2
Fore
SplineSet
217 1400 m 10
 227 1400 l 18
 234 1400 237 1397 237 1390 c 10
 237 10 l 18
 237 3 234 0 227 0 c 10
 217 0 l 18
 210 0 207 3 207 10 c 10
 207 1390 l 18
 207 1397 210 1400 217 1400 c 10
502 830 m 257
 524 849 l 257
 1078 10 l 258
 1084 2 1082 0 1075 0 c 2
 1056 0 l 2
 1050 0 1046 2 1041 10 c 258
 502 830 l 257
1044 1390 m 258
 1049 1395 1053 1400 1062 1400 c 2
 1069 1400 l 2
 1082 1400 1082 1397 1075 1390 c 258
 531 831 l 1
 522 821 l 1
 217 520 l 257
 217 550 l 257
 1044 1390 l 258
EndSplineSet
EndChar

StartChar: L
Encoding: 76 76 23
Width: 1050
VWidth: 1920
Flags: HW
AnchorPoint: "top" 264 1400 basechar 0
AnchorPoint: "bottom" 645 0 basechar 0
LayerCount: 2
Fore
SplineSet
217 1400 m 2
 227 1400 l 2
 234 1400 237 1397 237 1390 c 2
 237 30 l 281
 957 30 l 2
 964 30 967 27 967 20 c 2
 967 10 l 2
 967 3 964 0 957 0 c 2
 217 0 l 2
 210 0 207 3 207 10 c 2
 207 1390 l 2
 207 1397 210 1400 217 1400 c 2
EndSplineSet
EndChar

StartChar: M
Encoding: 77 77 24
Width: 1470
VWidth: 1920
Flags: HW
AnchorPoint: "top" 754 1400 basechar 0
AnchorPoint: "bottom" 772 0 basechar 0
LayerCount: 2
Fore
SplineSet
228 1340 m 257
 228 10 l 2
 228 3 225 0 218 0 c 2
 208 0 l 2
 201 0 198 3 198 10 c 2
 198 1390 l 2
 198 1397 201 1400 208 1400 c 2
 228 1400 l 2
 234 1400 238 1397 241 1390 c 2
 772 39 l 257
 1276 1390 l 2
 1278 1397 1282 1400 1289 1400 c 2
 1309 1400 l 2
 1316 1400 1319 1397 1319 1390 c 2
 1321 10 l 2
 1321 3 1318 0 1311 0 c 2
 1301 0 l 2
 1294 0 1291 3 1291 10 c 2
 1289 1340 l 257
 795 10 l 2
 793 3 789 0 782 0 c 2
 762 0 l 2
 755 0 751 3 749 10 c 2
 228 1340 l 257
EndSplineSet
EndChar

StartChar: N
Encoding: 78 78 25
Width: 1271
VWidth: 1920
Flags: HW
AnchorPoint: "top" 694 1400 basechar 0
AnchorPoint: "bottom" 685 0 basechar 0
LayerCount: 2
Fore
SplineSet
1101 1400 m 2
 1111 1400 l 2
 1118 1400 1121 1397 1121 1390 c 2
 1121 10 l 2
 1121 3 1118 0 1111 0 c 2
 1091 0 l 2
 1085 0 1081 2 1076 10 c 2
 227 1379 l 1
 237 1379 l 257
 237 10 l 2
 237 3 234 0 227 0 c 2
 217 0 l 2
 210 0 207 3 207 10 c 2
 207 1390 l 2
 207 1397 210 1400 217 1400 c 2
 237 1400 l 2
 244 1400 247 1398 252 1390 c 2
 1101 31 l 1
 1091 31 l 257
 1091 1390 l 2
 1091 1397 1094 1400 1101 1400 c 2
EndSplineSet
EndChar

StartChar: O
Encoding: 79 79 26
Width: 1365
VWidth: 1920
Flags: HW
AnchorPoint: "top" 678 1400 basechar 0
AnchorPoint: "bottom" 679 0 basechar 0
LayerCount: 2
Fore
SplineSet
122 618 m 258
 122 783 l 258
 122 1169 331 1435 674 1435 c 256
 1017 1435 1225 1169 1225 783 c 258
 1225 618 l 258
 1225 232 1017 -35 674 -35 c 256
 331 -35 122 232 122 618 c 258
152 618 m 258
 152 250 347 -5 674 -5 c 256
 1001 -5 1195 250 1195 618 c 258
 1195 783 l 258
 1195 1151 1002 1405 674 1405 c 256
 346 1405 152 1151 152 783 c 258
 152 618 l 258
EndSplineSet
EndChar

StartChar: P
Encoding: 80 80 27
Width: 1183
VWidth: 1920
Flags: HW
AnchorPoint: "top" 584 1400 basechar 0
AnchorPoint: "bottom" 235 0 basechar 0
LayerCount: 2
Fore
SplineSet
255 1370 m 257
 255 685 l 257
 633 685 l 258
 873 685 1002 738 1002 988 c 258
 1002 1052 l 258
 1002 1302 873 1370 633 1370 c 258
 255 1370 l 257
633 1400 m 258
 891 1400 1032 1322 1032 1052 c 258
 1032 988 l 258
 1032 718 891 655 633 655 c 258
 255 655 l 257
 255 10 l 2
 255 3 252 0 245 0 c 2
 235 0 l 2
 228 0 225 3 225 10 c 2
 225 1390 l 2
 225 1397 228 1400 235 1400 c 2
 633 1400 l 258
EndSplineSet
EndChar

StartChar: Q
Encoding: 81 81 28
Width: 1487
VWidth: 1920
Flags: HW
AnchorPoint: "top" 680 1400 basechar 0
AnchorPoint: "bottom" 681 0 basechar 0
LayerCount: 2
Fore
SplineSet
1441 20 m 2
 1441 10 l 2
 1441 3 1441 0 1430 -3 c 0
 1220 -55 1186 133 1186 398 c 257
 1209 588 l 257
 1209 238 1040 -35 656 -35 c 256
 299 -35 131 268 131 618 c 258
 131 783 l 258
 131 1133 290 1435 674 1435 c 256
 1058 1435 1216 1143 1216 793 c 258
 1216 328 l 258
 1216 84 1288 -15 1429 30 c 0
 1440 34 1441 27 1441 20 c 2
1186 558 m 258
 1186 793 l 258
 1186 1103 1031 1405 674 1405 c 256
 317 1405 161 1113 161 783 c 258
 161 618 l 258
 161 288 317 -5 674 -5 c 256
 1004 -5 1186 258 1186 558 c 258
EndSplineSet
EndChar

StartChar: R
Encoding: 82 82 29
Width: 1275
VWidth: 1920
Flags: HW
AnchorPoint: "top" 624 1400 basechar 0
AnchorPoint: "bottom" 645 0 basechar 0
LayerCount: 2
Fore
SplineSet
255 1370 m 257
 255 725 l 257
 687 725 l 258
 855 725 1008 818 1008 1008 c 258
 1008 1042 l 258
 1008 1252 900 1370 687 1370 c 262
 255 1370 l 257
687 1400 m 262
 909 1400 1038 1272 1038 1042 c 258
 1038 1018 l 258
 1038 808 900 710 687 710 c 257
 687 720 l 257
 918 720 1028 662 1028 422 c 258
 1028 328 l 258
 1028 214 1056 92 1099 24 c 0
 1107 13 1106 9 1106 6 c 2
 1106 5 l 2
 1106 1 1103 0 1096 0 c 2
 1086 0 l 2
 1080 0 1077 0 1072 9 c 0
 1021 108 996 201 996 328 c 258
 996 422 l 258
 996 662 882 705 687 705 c 258
 255 705 l 257
 255 10 l 2
 255 3 252 0 245 0 c 2
 235 0 l 2
 228 0 225 3 225 10 c 2
 225 1390 l 2
 225 1397 228 1400 235 1400 c 2
 687 1400 l 262
EndSplineSet
EndChar

StartChar: S
Encoding: 83 83 30
Width: 1173
VWidth: 1920
Flags: HW
AnchorPoint: "top" 574 1400 basechar 0
AnchorPoint: "bottom" 575 -25 basechar 0
LayerCount: 2
Fore
SplineSet
145 508 m 2
 155 508 l 2
 158 508 165 507 165 500 c 0
 165 468 166 458 166 436 c 0
 167 155 292 -5 588 -5 c 256
 865 -5 1006 107 1006 338 c 256
 1006 584 778 618 610 678 c 0
 401 754 175 828 175 1073 c 256
 175 1293 325 1435 574 1435 c 256
 866 1435 982 1256 982 1041 c 2
 982 971 l 2
 982 964 977 963 972 963 c 2
 962 963 l 2
 957 963 952 964 952 971 c 0
 952 994 952 1004 952 1031 c 0
 952 1256 840 1405 574 1405 c 256
 343 1405 210 1283 210 1073 c 256
 210 843 434 771 625 707 c 4
 830 636 1042 587 1042 338 c 256
 1042 91 893 -35 588 -35 c 256
 265 -35 136 153 136 389 c 2
 136 499 l 2
 136 506 142 508 145 508 c 2
EndSplineSet
EndChar

StartChar: T
Encoding: 84 84 31
Width: 1108
VWidth: 1920
Flags: HW
AnchorPoint: "top" 559 1400 basechar 0
AnchorPoint: "bottom" 560 0 basechar 0
LayerCount: 2
Fore
SplineSet
46 1400 m 2
 1058 1400 l 2
 1065 1400 1068 1397 1068 1390 c 2
 1068 1380 l 2
 1068 1373 1065 1370 1058 1370 c 2
 567 1370 l 257
 567 10 l 2
 567 3 564 0 557 0 c 2
 547 0 l 2
 540 0 537 3 537 10 c 2
 537 1370 l 257
 46 1370 l 2
 39 1370 36 1373 36 1380 c 2
 36 1390 l 2
 36 1397 39 1400 46 1400 c 2
EndSplineSet
EndChar

StartChar: U
Encoding: 85 85 32
Width: 1281
VWidth: 1920
Flags: HW
AnchorPoint: "ogonek" 800 0 basechar 0
AnchorPoint: "top" 634 1400 basechar 0
AnchorPoint: "bottom" 635 0 basechar 0
LayerCount: 2
Fore
SplineSet
1024 488 m 258
 1024 1390 l 2
 1024 1397 1027 1400 1034 1400 c 2
 1044 1400 l 2
 1051 1400 1054 1397 1054 1390 c 2
 1054 498 l 258
 1054 178 990 -35 633 -35 c 256
 285 -35 229 178 229 558 c 258
 229 1390 l 2
 229 1397 232 1400 239 1400 c 2
 249 1400 l 2
 256 1400 259 1397 259 1390 c 2
 259 548 l 258
 259 228 294 -5 633 -5 c 256
 963 -5 1024 188 1024 488 c 258
EndSplineSet
EndChar

StartChar: V
Encoding: 86 86 33
Width: 1168
VWidth: 1920
Flags: HW
AnchorPoint: "top" 594 1400 basechar 0
AnchorPoint: "bottom" 595 0 basechar 0
LayerCount: 2
Fore
SplineSet
593 45 m 257
 1040 1390 l 258
 1042 1396 1046 1400 1052 1400 c 258
 1072 1400 l 258
 1079 1400 1081 1396 1079 1390 c 258
 609 10 l 258
 607 4 604 0 598 0 c 258
 589 0 l 258
 583 0 579 4 577 10 c 258
 98 1390 l 258
 96 1396 98 1400 105 1400 c 258
 125 1400 l 258
 131 1400 135 1397 137 1390 c 258
 593 45 l 257
EndSplineSet
EndChar

StartChar: W
Encoding: 87 87 34
Width: 1647
VWidth: 1920
Flags: HW
AnchorPoint: "top" 842 1400 basechar 0
AnchorPoint: "bottom" 843 0 basechar 0
LayerCount: 2
Fore
SplineSet
497 60 m 257
 819 1390 l 2
 821 1396 824 1400 830 1400 c 2
 850 1400 l 2
 856 1400 860 1397 862 1390 c 2
 1226 44 l 257
 1514 1390 l 2
 1515 1397 1519 1400 1525 1400 c 2
 1535 1400 l 2
 1542 1400 1544 1397 1542 1390 c 2
 1246 10 l 2
 1244 3 1240 0 1233 0 c 2
 1213 0 l 2
 1207 0 1204 3 1202 10 c 2
 840 1364 l 257
 514 10 l 2
 512 3 508 0 502 0 c 2
 487 0 l 2
 480 0 476 3 474 10 c 2
 115 1390 l 2
 113 1397 115 1400 122 1400 c 2
 137 1400 l 2
 143 1400 148 1397 149 1390 c 2
 497 60 l 257
EndSplineSet
EndChar

StartChar: X
Encoding: 88 88 35
Width: 1168
VWidth: 1920
Flags: HW
AnchorPoint: "top" 594 1400 basechar 0
AnchorPoint: "bottom" 595 0 basechar 0
LayerCount: 2
Fore
SplineSet
1009 1400 m 2
 1024 1400 l 2
 1031 1400 1032 1398 1027 1390 c 2
 606 715 l 257
 1051 10 l 2
 1056 2 1055 0 1048 0 c 2
 1028 0 l 2
 1022 0 1018 2 1014 10 c 2
 585 696 l 257
 139 10 l 2
 134 2 130 0 124 0 c 2
 109 0 l 2
 102 0 100 2 106 10 c 2
 569 717 l 257
 136 1390 l 2
 131 1398 132 1400 139 1400 c 2
 159 1400 l 2
 166 1400 170 1398 174 1390 c 2
 588 737 l 257
 994 1390 l 2
 999 1398 1003 1400 1009 1400 c 2
EndSplineSet
EndChar

StartChar: Y
Encoding: 89 89 36
Width: 1164
VWidth: 1920
Flags: HW
AnchorPoint: "top" 584 1400 basechar 0
AnchorPoint: "bottom" 580 0 basechar 0
LayerCount: 2
Fore
SplineSet
1051 1400 m 2
 1066 1400 l 2
 1073 1400 1074 1397 1070 1390 c 2
 592 550 l 257
 592 10 l 2
 592 3 589 0 583 0 c 2
 574 0 l 2
 568 0 565 3 565 10 c 2
 565 550 l 257
 78 1390 l 2
 73 1398 75 1400 82 1400 c 2
 97 1400 l 2
 103 1400 107 1397 111 1390 c 2
 581 580 l 257
 1036 1390 l 2
 1040 1397 1045 1400 1051 1400 c 2
EndSplineSet
EndChar

StartChar: Z
Encoding: 90 90 37
Width: 1103
VWidth: 1920
Flags: HW
AnchorPoint: "top" 554 1400 basechar 0
AnchorPoint: "bottom" 555 0 basechar 0
LayerCount: 2
Fore
SplineSet
25 10 m 2
 983 1370 l 257
 118 1370 l 2
 111 1370 108 1373 108 1380 c 2
 108 1390 l 2
 108 1397 111 1400 118 1400 c 2
 1037 1400 l 2
 1044 1400 1046 1398 1040 1390 c 2
 82 30 l 257
 1027 30 l 2
 1034 30 1037 27 1037 20 c 2
 1037 10 l 2
 1037 3 1034 0 1027 0 c 2
 28 0 l 2
 21 0 19 2 25 10 c 2
EndSplineSet
EndChar

StartChar: a
Encoding: 97 97 38
Width: 999
VWidth: 1920
Flags: HW
AnchorPoint: "ogonek" 883.66 0 basechar 0
AnchorPoint: "top" 497.66 1050 basechar 0
AnchorPoint: "bottom" 548.66 0 basechar 0
LayerCount: 2
Fore
SplineSet
99.66015625 243 m 0
 99.66015625 71 212.66015625 -7 395.66015625 -7 c 256
 634.66015625 -7 816.66015625 232 816.66015625 398 c 257
 831.66015625 378 l 257
 831.66015625 185 626.66015625 -35 400.66015625 -35 c 256
 185.66015625 -35 69.66015625 55 69.66015625 240 c 0
 69.66015625 451 238.66015625 540 482.66015625 575 c 256
 691.66015625 605 816.66015625 605 816.66015625 758 c 257
 836.66015625 738 l 257
 836.66015625 585 685.66015625 579 488.66015625 550 c 256
 246.66015625 514 99.66015625 433 99.66015625 243 c 0
816.66015625 208 m 258
 816.66015625 778 l 258
 816.66015625 938 710.66015625 1060 508.66015625 1060 c 256
 297.66015625 1060 175.66015625 948 156.66015625 742 c 0
 155.66015625 736 153.66015625 733 146.66015625 733 c 2
 137.66015625 733 l 2
 130.66015625 733 127.66015625 736 128.66015625 742 c 0
 152.66015625 965 281.66015625 1085 509.66015625 1085 c 256
 725.66015625 1085 846.66015625 951 846.66015625 773 c 258
 846.66015625 208 l 258
 846.66015625 114 868.66015625 49 904.66015625 7 c 0
 908.66015625 2 907.66015625 0 900.66015625 0 c 2
 886.66015625 0 l 2
 879.66015625 0 874.66015625 2 871.66015625 6 c 0
 834.66015625 49 816.66015625 113 816.66015625 208 c 258
EndSplineSet
EndChar

StartChar: b
Encoding: 98 98 39
Width: 1093
VWidth: 1920
Flags: HW
LayerCount: 2
Fore
SplineSet
130 1450 m 2
 140 1450 l 2
 147 1450 150 1447 150 1440 c 2
 150 375 l 257
 142 -25 l 2
 142 -33 141 -35 134 -35 c 2
 130 -35 l 2
 123 -35 120 -32 120 -25 c 2
 120 1440 l 2
 120 1447 123 1450 130 1450 c 2
135 633 m 261
 135 903 361 1085 578 1085 c 260
 784 1085 1018 943 1018 603 c 262
 1018 447 l 262
 1018 127 793 -35 587 -35 c 260
 343 -35 135 157 135 417 c 261
 150 437 l 261
 150 197 344 -5 587 -5 c 260
 775 -5 988 147 988 447 c 262
 988 603 l 262
 988 923 766 1055 578 1055 c 260
 353 1055 150 853 150 613 c 261
 135 633 l 261
EndSplineSet
EndChar

StartChar: c
Encoding: 99 99 40
Width: 988
VWidth: 1920
Flags: HW
AnchorPoint: "bottom" 523 -25 basechar 0
AnchorPoint: "top" 509 1050 basechar 0
LayerCount: 2
Fore
SplineSet
943 380 m 0
 940 301 917 221 874 152 c 0
 806 44 687 -35 513 -35 c 256
 258 -35 65 171 65 468 c 258
 65 583 l 258
 65 880 253 1085 508 1085 c 256
 685 1085 811 993 878 874 c 0
 914 811 932 740 933 671 c 0
 933 666 930 663 923 663 c 2
 915 663 l 2
 908 663 905 666 905 670 c 0
 905 733 888 799 856 857 c 0
 794 971 674 1060 508 1060 c 256
 257 1060 91 853 91 583 c 258
 91 468 l 258
 91 195 264 -9 513 -9 c 256
 677 -9 787 68 850 168 c 0
 892 235 913 311 916 381 c 0
 916 385 919 388 926 388 c 2
 933 388 l 2
 940 388 943 385 943 380 c 0
EndSplineSet
EndChar

StartChar: d
Encoding: 100 100 41
Width: 1093
VWidth: 1920
Flags: HW
LayerCount: 2
Fore
SplineSet
957.950195312 417 m 261
 957.950195312 167 762.950195312 -35 505.950195312 -35 c 260
 299.950195312 -35 74.9501953125 127 74.9501953125 447 c 262
 74.9501953125 603 l 262
 74.9501953125 943 307.950195312 1085 513.950195312 1085 c 260
 750.950195312 1085 957.950195312 883 957.950195312 633 c 261
 942.950195312 613 l 261
 942.950195312 823 750.950195312 1055 513.950195312 1055 c 260
 325.950195312 1055 104.950195312 923 104.950195312 603 c 262
 104.950195312 447 l 262
 104.950195312 147 317.950195312 -5 505.950195312 -5 c 260
 771.950195312 -5 942.950195312 227 942.950195312 437 c 261
 957.950195312 417 l 261
972.950195312 1440 m 2
 972.950195312 10 l 2
 972.950195312 3 973.950195312 0 966.950195312 0 c 2
 954.950195312 0 l 2
 947.950195312 0 948.950195312 3 948.950195312 10 c 2
 948.950195312 370 l 257
 942.950195312 402 l 257
 942.950195312 1440 l 2
 942.950195312 1447 945.950195312 1450 952.950195312 1450 c 2
 962.950195312 1450 l 2
 969.950195312 1450 972.950195312 1447 972.950195312 1440 c 2
EndSplineSet
EndChar

StartChar: e
Encoding: 101 101 42
Width: 1082
VWidth: 1920
Flags: HW
AnchorPoint: "ogonek" 782.759 20 basechar 0
AnchorPoint: "bottom" 601.759 0 basechar 0
AnchorPoint: "top" 552.759 1050 basechar 0
LayerCount: 2
Fore
SplineSet
996.758789062 329 m 0
 992.758789062 291 983.758789062 254 970.758789062 218 c 0
 918.758789062 75 793.758789062 -35 566.758789062 -35 c 256
 330.758789062 -35 104.758789062 138 104.758789062 448 c 258
 104.758789062 603 l 258
 104.758789062 903 329.758789062 1085 553.758789062 1085 c 256
 814.758789062 1085 953.758789062 893 985.758789062 674 c 260
 995.758789062 603 996.758789062 568 996.758789062 534 c 0
 996.758789062 529 993.758789062 526 986.758789062 526 c 2
 118.758789062 526 l 257
 118.758789062 555 l 257
 968.758789062 555 l 261
 964.758789062 882 779.758789062 1060 553.758789062 1060 c 256
 338.758789062 1060 134.758789062 873 134.758789062 603 c 258
 134.758789062 448 l 258
 134.758789062 178 330.758789062 -10 565.758789062 -10 c 256
 842.758789062 -10 949.758789062 154 968.758789062 332 c 0
 968.758789062 336 973.758789062 338 980.758789062 338 c 2
 988.758789062 338 l 2
 995.758789062 338 997.758789062 335 996.758789062 329 c 0
EndSplineSet
EndChar

StartChar: f
Encoding: 102 102 43
Width: 620
VWidth: 1920
Flags: HW
LayerCount: 2
Fore
SplineSet
580 1025 m 6
 70 1025 l 6
 63 1025 60 1028 60 1035 c 6
 60 1040 l 6
 60 1047 63 1050 70 1050 c 6
 580 1050 l 6
 587 1050 590 1047 590 1040 c 6
 590 1035 l 6
 590 1028 587 1025 580 1025 c 6
250 1188 m 262
 250 1395 291 1469 578 1441 c 4
 587 1440 590 1437 590 1430 c 6
 590 1425 l 6
 590 1418 587 1416 574 1417 c 4
 311 1446 285 1383 285 1188 c 262
 285 10 l 6
 285 3 282 0 275 0 c 6
 260 0 l 6
 253 0 250 3 250 10 c 6
 250 1188 l 262
EndSplineSet
EndChar

StartChar: g
Encoding: 103 103 44
Width: 862
VWidth: 1920
Flags: HW
AnchorPoint: "top" 377 1100 basechar 0
LayerCount: 2
Fore
SplineSet
796 1250 m 0
 782 1058 682 1010 638 1010 c 257
 610 1020 l 257
 663 1020 755 1071 766 1251 c 0
 766 1257 770 1260 777 1260 c 2
 787 1260 l 2
 794 1260 797 1257 796 1250 c 0
572 190 m 258
 729 177 817 92 817 -35 c 256
 817 -212 654 -360 387 -360 c 258
 364 -360 l 258
 193 -360 5 -280 5 -93 c 256
 5 54 119 176 250 206 c 257
 264 190 l 257
 133 160 38 42 38 -95 c 256
 38 -269 222 -330 364 -330 c 258
 387 -330 l 258
 636 -330 779 -192 779 -35 c 256
 779 72 720 147 563 160 c 258
 329 180 l 262
 185 192 90 228 90 315 c 260
 90 422 223 455 385 505 c 257
 387 495 l 257
 261 435 120 414 120 317 c 260
 120 245 222 219 329 210 c 258
 572 190 l 258
737 773 m 258
 737 788 l 258
 737 955 597 1055 424 1055 c 256
 246 1055 108 948 108 788 c 258
 108 773 l 258
 108 633 246 515 424 515 c 256
 597 515 737 625 737 773 c 258
767 773 m 258
 767 623 627 485 423 485 c 256
 219 485 78 623 78 773 c 258
 78 788 l 258
 78 958 219 1085 423 1085 c 256
 627 1085 767 958 767 788 c 258
 767 773 l 258
EndSplineSet
EndChar

StartChar: h
Encoding: 104 104 45
Width: 986
VWidth: 1920
Flags: HW
AnchorPoint: "bottom" 495 0 basechar 0
AnchorPoint: "top" 141 1450 basechar 0
LayerCount: 2
Fore
SplineSet
135 1450 m 2
 145 1450 l 2
 152 1450 155 1447 155 1440 c 2
 155 10 l 2
 155 3 152 0 145 0 c 2
 135 0 l 2
 128 0 125 3 125 10 c 2
 125 1440 l 2
 125 1447 128 1450 135 1450 c 2
135 623 m 257
 135 853 300 1085 534 1085 c 256
 750 1085 861 963 861 733 c 258
 861 10 l 2
 861 3 858 0 851 0 c 2
 841 0 l 2
 834 0 831 3 831 10 c 2
 831 733 l 258
 831 943 732 1060 534 1060 c 256
 305 1060 155 833 155 623 c 257
 135 623 l 257
EndSplineSet
EndChar

StartChar: i
Encoding: 105 105 46
Width: 266
VWidth: 1920
Flags: HW
AnchorPoint: "bottom" 125 0 basechar 0
AnchorPoint: "ogonek" 125 0 basechar 0
LayerCount: 2
Fore
SplineSet
148 1400 m 2
 148 1220 l 2
 148 1213 145 1210 138 1210 c 2
 128 1210 l 2
 121 1210 118 1213 118 1220 c 2
 118 1400 l 2
 118 1407 121 1410 128 1410 c 2
 138 1410 l 2
 145 1410 148 1407 148 1400 c 2
148 1040 m 2
 148 10 l 2
 148 3 145 0 138 0 c 2
 128 0 l 2
 121 0 118 3 118 10 c 2
 118 1040 l 2
 118 1047 121 1050 128 1050 c 2
 138 1050 l 2
 145 1050 148 1047 148 1040 c 2
EndSplineSet
EndChar

StartChar: j
Encoding: 106 106 47
Width: 266
VWidth: 1920
Flags: HW
LayerCount: 2
Fore
SplineSet
148 1400 m 6
 148 1220 l 6
 148 1213 145 1210 138 1210 c 6
 128 1210 l 6
 121 1210 118 1213 118 1220 c 6
 118 1400 l 6
 118 1407 121 1410 128 1410 c 6
 138 1410 l 6
 145 1410 148 1407 148 1400 c 6
148 -86 m 262
 148 -293 107 -378 -181 -351 c 4
 -189 -350 -192 -347 -192 -340 c 6
 -192 -330 l 6
 -192 -323 -189 -320 -182 -321 c 4
 70 -348 118 -285 118 -88 c 262
 118 1040 l 6
 118 1047 121 1050 128 1050 c 6
 138 1050 l 6
 145 1050 148 1047 148 1040 c 6
 148 -86 l 262
EndSplineSet
EndChar

StartChar: k
Encoding: 107 107 48
Width: 879
VWidth: 1920
Flags: HW
LayerCount: 2
Fore
SplineSet
130.22265625 1450 m 2
 140.22265625 1450 l 2
 147.22265625 1450 150.22265625 1447 150.22265625 1440 c 2
 150.22265625 10 l 2
 150.22265625 3 147.22265625 0 140.22265625 0 c 2
 130.22265625 0 l 2
 123.22265625 0 120.22265625 3 120.22265625 10 c 2
 120.22265625 1440 l 2
 120.22265625 1447 123.22265625 1450 130.22265625 1450 c 2
122.22265625 391 m 257
 761.22265625 1040 l 2
 768.22265625 1048 771.22265625 1050 778.22265625 1050 c 2
 803.22265625 1050 l 6
 809.22265625 1050 810.22265625 1048 802.22265625 1040 c 6
 140.22265625 373 l 257
 122.22265625 391 l 257
352.22265625 613 m 257
 373.22265625 633 l 257
 876.22265625 10 l 2
 881.22265625 3 879.22265625 0 872.22265625 0 c 2
 853.22265625 0 l 2
 846.22265625 0 843.22265625 3 839.22265625 10 c 2
 352.22265625 613 l 257
EndSplineSet
EndChar

StartChar: l
Encoding: 108 108 49
Width: 286
VWidth: 1920
Flags: HW
LayerCount: 2
Fore
SplineSet
138 1450 m 2
 148 1450 l 2
 155 1450 158 1447 158 1440 c 2
 158 10 l 2
 158 3 155 0 148 0 c 2
 138 0 l 2
 131 0 128 3 128 10 c 2
 128 1440 l 2
 128 1447 131 1450 138 1450 c 2
EndSplineSet
EndChar

StartChar: m
Encoding: 109 109 50
Width: 1549
VWidth: 1920
Flags: HW
LayerCount: 2
Fore
SplineSet
769 623 m 257
 769 963 962 1085 1130 1085 c 256
 1298 1085 1421 963 1421 763 c 258
 1421 10 l 2
 1421 3 1418 0 1411 0 c 2
 1401 0 l 2
 1394 0 1391 3 1391 10 c 2
 1391 763 l 258
 1391 953 1280 1060 1130 1060 c 256
 971 1060 789 923 789 623 c 257
 769 623 l 257
137 1050 m 2
 138 1050 l 2
 145 1050 148 1047 148 1040 c 2
 148 722 l 257
 157 695 l 257
 157 10 l 2
 157 3 154 0 148 0 c 2
 138 0 l 2
 131 0 128 3 128 10 c 2
 128 1040 l 2
 128 1047 131 1050 137 1050 c 2
138 643 m 257
 138 933 330 1085 498 1085 c 260
 666 1085 789 963 789 763 c 258
 789 10 l 2
 789 3 786 0 779 0 c 2
 769 0 l 2
 762 0 759 3 759 10 c 2
 759 763 l 258
 759 943 648 1060 498 1060 c 260
 339 1060 157 903 157 623 c 257
 138 643 l 257
EndSplineSet
EndChar

StartChar: n
Encoding: 110 110 51
Width: 986
VWidth: 1920
Flags: HW
AnchorPoint: "bottom" 495 0 basechar 0
AnchorPoint: "top" 516 1050 basechar 0
LayerCount: 2
Fore
SplineSet
135 1050 m 2
 141 1050 l 2
 148 1050 151 1047 151 1040 c 2
 151 667 l 257
 155 640 l 257
 155 10 l 2
 155 3 152 0 145 0 c 2
 135 0 l 2
 128 0 125 3 125 10 c 2
 125 1040 l 2
 125 1047 128 1050 135 1050 c 2
135 623 m 257
 135 853 300 1085 534 1085 c 256
 750 1085 861 963 861 733 c 258
 861 10 l 2
 861 3 858 0 851 0 c 2
 841 0 l 2
 834 0 831 3 831 10 c 2
 831 733 l 258
 831 943 732 1060 534 1060 c 256
 305 1060 155 833 155 623 c 257
 135 623 l 257
EndSplineSet
EndChar

StartChar: o
Encoding: 111 111 52
Width: 1110
VWidth: 1920
Flags: HW
AnchorPoint: "top" 558 1050 basechar 0
AnchorPoint: "bottom" 557 0 basechar 0
LayerCount: 2
Fore
SplineSet
90 468 m 258
 90 583 l 258
 90 873 288 1085 555 1085 c 256
 822 1085 1020 873 1020 583 c 258
 1020 468 l 258
 1020 178 822 -35 555 -35 c 256
 288 -35 90 178 90 468 c 258
115 468 m 258
 115 198 306 -10 555 -10 c 256
 804 -10 995 198 995 468 c 258
 995 583 l 258
 995 853 804 1060 555 1060 c 256
 306 1060 115 853 115 583 c 258
 115 468 l 258
EndSplineSet
EndChar

StartChar: p
Encoding: 112 112 53
Width: 1093
VWidth: 1920
Flags: HW
LayerCount: 2
Fore
SplineSet
135 633 m 257
 135 903 361 1085 578 1085 c 256
 784 1085 1018 943 1018 603 c 258
 1018 447 l 258
 1018 127 793 -35 587 -35 c 256
 343 -35 135 157 135 417 c 257
 150 437 l 257
 150 197 344 -5 587 -5 c 256
 775 -5 988 147 988 447 c 258
 988 603 l 258
 988 923 766 1055 578 1055 c 256
 353 1055 150 853 150 613 c 257
 135 633 l 257
120 -350 m 2
 120 1040 l 2
 120 1047 120 1050 127 1050 c 2
 138 1050 l 2
 145 1050 145 1047 145 1040 c 2
 145 680 l 257
 150 648 l 257
 150 -350 l 2
 150 -357 147 -360 140 -360 c 2
 130 -360 l 2
 123 -360 120 -357 120 -350 c 2
EndSplineSet
EndChar

StartChar: q
Encoding: 113 113 54
Width: 1093
VWidth: 1920
Flags: HW
LayerCount: 2
Fore
SplineSet
963 -360 m 2
 953 -360 l 2
 946 -360 943 -357 943 -350 c 2
 943 675 l 257
 951 1075 l 2
 951 1083 952 1085 959 1085 c 2
 963 1085 l 2
 970 1085 973 1082 973 1075 c 2
 973 -350 l 2
 973 -357 970 -360 963 -360 c 2
958 417 m 261
 958 167 763 -35 506 -35 c 260
 300 -35 75 127 75 447 c 262
 75 603 l 262
 75 943 308 1085 514 1085 c 260
 751 1085 958 883 958 633 c 261
 943 613 l 261
 943 823 751 1055 514 1055 c 260
 326 1055 105 923 105 603 c 262
 105 447 l 262
 105 147 318 -5 506 -5 c 260
 772 -5 943 227 943 437 c 261
 958 417 l 261
EndSplineSet
EndChar

StartChar: r
Encoding: 114 114 55
Width: 635
VWidth: 1920
Flags: HW
AnchorPoint: "top" 315 1050 basechar 0
AnchorPoint: "bottom" 164 0 basechar 0
LayerCount: 2
Fore
SplineSet
130 1050 m 10
 135 1050 l 2
 142 1050 145 1047 145 1040 c 2
 145 714 l 257
 150 705 l 257
 150 10 l 2
 150 3 147 0 140 0 c 2
 130 0 l 2
 123 0 120 3 120 10 c 2
 120 1040 l 2
 120 1047 123 1050 130 1050 c 10
130 663 m 257
 130 859 351 1088 571 1076 c 0
 582 1075 585 1072 585 1065 c 2
 585 1058 l 2
 585 1051 582 1049 568 1050 c 0
 373 1064 150 847 150 663 c 257
 130 663 l 257
EndSplineSet
EndChar

StartChar: s
Encoding: 115 115 56
Width: 944
VWidth: 1920
Flags: HW
AnchorPoint: "top" 458 1050 basechar 0
AnchorPoint: "bottom" 487 -25 basechar 0
LayerCount: 2
Fore
SplineSet
74 358 m 2
 84 358 l 2
 91 358 94 356 94 349 c 0
 94 315 96 285 100 257 c 0
 131 46 348 -7 489 -7 c 256
 683 -7 842 88 842 265 c 256
 842 680 108 394 108 816 c 256
 108 985 243 1085 460 1085 c 256
 638 1085 807 998 828 812 c 0
 831 790 831 767 831 742 c 0
 831 735 828 733 821 733 c 2
 815 733 l 2
 809 733 805 736 805 743 c 0
 805 766 804 788 802 809 c 0
 784 979 619 1060 458 1060 c 256
 249 1060 137 963 137 815 c 256
 137 426 876 707 876 264 c 256
 876 83 710 -36 489 -36 c 256
 322 -36 106 23 70 252 c 0
 65 282 63 314 63 350 c 0
 63 357 67 358 74 358 c 2
EndSplineSet
EndChar

StartChar: t
Encoding: 116 116 57
Width: 625
VWidth: 1920
Flags: HW
AnchorPoint: "bottom" 357 0 basechar 0
LayerCount: 2
Fore
SplineSet
570 1025 m 2
 40 1025 l 2
 33 1025 30 1028 30 1035 c 2
 30 1040 l 2
 30 1047 33 1050 40 1050 c 2
 570 1050 l 2
 577 1050 580 1047 580 1040 c 2
 580 1035 l 2
 580 1028 577 1025 570 1025 c 2
585 10 m 6
 585 8 l 2
 585 1 582 0 575 -1 c 0
 287 -38 250 44 250 252 c 258
 250 1290 l 2
 250 1297 253 1300 260 1300 c 2
 265 1300 l 2
 272 1300 275 1297 275 1290 c 2
 275 252 l 258
 275 55 306 -13 576 19 c 0
 581 20 585 16 585 10 c 6
EndSplineSet
EndChar

StartChar: u
Encoding: 117 117 58
Width: 986
VWidth: 1920
Flags: HW
AnchorPoint: "ogonek" 841 0 basechar 0
AnchorPoint: "bottom" 515 0 basechar 0
AnchorPoint: "top" 486 1050 basechar 0
LayerCount: 2
Fore
SplineSet
851 0 m 6
 845 0 l 2
 838 0 835 3 835 10 c 2
 835 383 l 257
 831 410 l 257
 831 1040 l 2
 831 1047 834 1050 841 1050 c 2
 851 1050 l 2
 858 1050 861 1047 861 1040 c 2
 861 10 l 2
 861 3 858 0 851 0 c 6
851 427 m 257
 851 197 686 -35 452 -35 c 256
 236 -35 125 87 125 317 c 258
 125 1040 l 2
 125 1047 128 1050 135 1050 c 2
 145 1050 l 2
 152 1050 155 1047 155 1040 c 2
 155 317 l 258
 155 107 254 -10 452 -10 c 256
 681 -10 831 217 831 427 c 257
 851 427 l 257
EndSplineSet
EndChar

StartChar: v
Encoding: 118 118 59
Width: 886
VWidth: 1920
Flags: HW
LayerCount: 2
Fore
SplineSet
440.650390625 37 m 257
 834.650390625 1040 l 6
 836.650390625 1047 841.650390625 1050 848.650390625 1050 c 6
 858.650390625 1050 l 6
 865.650390625 1050 867.650390625 1047 864.650390625 1040 c 6
 458.650390625 10 l 2
 455.650390625 2 451.650390625 0 445.650390625 0 c 2
 431.650390625 0 l 2
 425.650390625 0 422.650390625 3 419.650390625 10 c 2
 20.650390625 1040 l 2
 18.650390625 1047 19.650390625 1050 26.650390625 1050 c 2
 36.650390625 1050 l 2
 43.650390625 1050 47.650390625 1047 49.650390625 1040 c 2
 440.650390625 37 l 257
EndSplineSet
EndChar

StartChar: w
Encoding: 119 119 60
Width: 1407
VWidth: 1920
Flags: HW
LayerCount: 2
Fore
SplineSet
1017.26464844 58 m 257
 1340.26464844 1040 l 2
 1342.26464844 1047 1345.26464844 1050 1352.26464844 1050 c 2
 1362.26464844 1050 l 2
 1369.26464844 1050 1371.26464844 1047 1369.26464844 1040 c 2
 1031.26464844 10 l 6
 1029.26464844 3 1025.26464844 0 1018.26464844 0 c 6
 1013.26464844 0 l 6
 1007.26464844 0 1003.26464844 2 1001.26464844 10 c 6
 715.264648438 1011 l 257
 404.264648438 10 l 2
 402.264648438 2 398.264648438 0 392.264648438 0 c 2
 384.264648438 0 l 2
 377.264648438 0 373.264648438 2 371.264648438 10 c 2
 37.2646484375 1040 l 2
 35.2646484375 1047 37.2646484375 1050 44.2646484375 1050 c 2
 54.2646484375 1050 l 2
 61.2646484375 1050 65.2646484375 1047 67.2646484375 1040 c 2
 389.264648438 58 l 257
 699.264648438 1040 l 2
 701.264648438 1047 704.264648438 1050 710.264648438 1050 c 2
 724.264648438 1050 l 2
 730.264648438 1050 733.264648438 1047 735.264648438 1040 c 2
 1017.26464844 58 l 257
EndSplineSet
EndChar

StartChar: x
Encoding: 120 120 61
Width: 922
VWidth: 1920
Flags: HW
LayerCount: 2
Fore
SplineSet
63.875 0 m 2
 48.875 0 l 2
 41.875 0 40.875 3 45.875 10 c 2
 450.875 548 l 257
 60.875 1040 l 2
 55.875 1048 56.875 1050 63.875 1050 c 2
 81.875 1050 l 2
 87.875 1050 92.875 1048 96.875 1040 c 2
 465.875 567 l 257
 829.875 1040 l 2
 833.875 1048 838.875 1050 844.875 1050 c 2
 857.875 1050 l 2
 864.875 1050 865.875 1047 860.875 1040 c 2
 478.875 551 l 257
 875.875 10 l 2
 880.875 2 879.875 0 872.875 0 c 2
 854.875 0 l 2
 847.875 0 844.875 2 840.875 10 c 2
 463.875 528 l 257
 77.875 10 l 2
 73.875 3 69.875 0 63.875 0 c 2
EndSplineSet
EndChar

StartChar: y
Encoding: 121 121 62
Width: 909
VWidth: 1920
Flags: HW
AnchorPoint: "top" 455.09 1050 basechar 0
LayerCount: 2
Fore
SplineSet
456.08984375 28 m 257
 832.08984375 1040 l 2
 834.08984375 1047 838.08984375 1050 845.08984375 1050 c 2
 860.08984375 1050 l 2
 867.08984375 1050 868.08984375 1047 866.08984375 1040 c 2
 444.08984375 -111 l 258
 350.08984375 -393 300.08984375 -400 105.08984375 -363 c 0
 93.08984375 -361 90.08984375 -357 90.08984375 -350 c 2
 90.08984375 -335 l 2
 90.08984375 -328 93.08984375 -326 101.08984375 -328 c 0
 300.08984375 -373 337.08984375 -375 439.08984375 -10 c 257
 38.08984375 1040 l 2
 36.08984375 1047 37.08984375 1050 44.08984375 1050 c 2
 54.08984375 1050 l 2
 61.08984375 1050 65.08984375 1046 67.08984375 1040 c 2
 456.08984375 28 l 257
EndSplineSet
EndChar

StartChar: z
Encoding: 122 122 63
Width: 888
VWidth: 1920
Flags: HW
AnchorPoint: "top" 451 1050 basechar 0
LayerCount: 2
Fore
SplineSet
59 10 m 2
 795 1020 l 1
 122 1020 l 2
 113 1020 112 1021 112 1030 c 2
 112 1040 l 2
 112 1049 113 1050 122 1050 c 2
 848 1050 l 2
 855 1050 857 1048 851 1040 c 2
 116 30 l 1
 858 30 l 2
 865 30 868 27 868 20 c 2
 868 10 l 2
 868 3 865 0 858 0 c 2
 62 0 l 2
 55 0 53 2 59 10 c 2
EndSplineSet
EndChar

StartChar: comma
Encoding: 44 44 65
Width: 540
VWidth: 1920
Flags: HMW
LayerCount: 2
Fore
SplineSet
236 -210 m 6
 234 -210 l 6
 227 -210 226 -208 228 -200 c 6
 267 0 l 261
 260 0 l 6
 251 0 250 1 250 10 c 6
 250 200 l 6
 250 207 253 210 260 210 c 6
 280 210 l 6
 287 210 290 207 290 200 c 6
 290 20 l 6
 290 13 290 7 288 0 c 6
 246 -200 l 6
 244 -209 242 -210 236 -210 c 6
EndSplineSet
EndChar

StartChar: exclam
Encoding: 33 33 67
Width: 540
VWidth: 1920
Flags: HMW
LayerCount: 2
Fore
SplineSet
280 0 m 2
 260 0 l 2
 253 0 250 3 250 10 c 2
 250 200 l 2
 250 207 253 210 260 210 c 2
 280 210 l 2
 287 210 290 207 290 200 c 2
 290 10 l 2
 290 3 287 0 280 0 c 2
255 950 m 2
 255 1440 l 2
 255 1447 258 1450 265 1450 c 2
 275 1450 l 2
 282 1450 285 1447 285 1440 c 2
 285 950 l 2
 285 943 285 857 284 850 c 6
 281 440 l 6
 281 433 278 430 271 430 c 2
 269 430 l 2
 262 430 259 433 259 440 c 2
 256 850 l 2
 256 857 255 943 255 950 c 2
EndSplineSet
EndChar

StartChar: quotesingle
Encoding: 39 39 70
Width: 370
VWidth: 1920
Flags: HMW
LayerCount: 2
Fore
SplineSet
187 930 m 2
 184 930 l 2
 177 930 174 933 173 940 c 2
 171 1150 l 6
 171 1187 170 1203 170 1230 c 6
 170 1410 l 2
 170 1417 173 1420 180 1420 c 2
 190 1420 l 2
 197 1420 200 1417 200 1410 c 2
 200 1230 l 6
 200 1203 199 1187 199 1150 c 6
 197 940 l 2
 196 933 194 930 187 930 c 2
EndSplineSet
EndChar

StartChar: question
Encoding: 63 63 71
Width: 1080
VWidth: 1920
Flags: HMW
LayerCount: 2
Fore
SplineSet
590 0 m 6
 570 0 l 6
 563 0 560 3 560 10 c 6
 560 200 l 6
 560 207 563 210 570 210 c 6
 590 210 l 6
 597 210 600 207 600 200 c 6
 600 10 l 6
 600 3 597 0 590 0 c 6
575 400 m 6
 565 400 l 6
 558 400 554 403 554 409 c 4
 571 731 895 778 895 1063 c 262
 895 1098 l 262
 895 1328 786 1455 589 1455 c 260
 369 1455 255 1295 255 1052 c 262
 255 962 l 6
 255 955 252 952 245 952 c 6
 235 952 l 6
 228 952 225 955 225 962 c 6
 225 1052 l 262
 225 1316 342 1485 589 1485 c 260
 806 1485 925 1353 925 1103 c 262
 925 1078 l 262
 925 755 605 713 587 408 c 4
 587 403 582 400 575 400 c 6
EndSplineSet
EndChar

StartChar: parenleft
Encoding: 40 40 72
Width: 535
VWidth: 2048
Flags: HMW
LayerCount: 2
Fore
SplineSet
130 838 m 262
 130 1243 239 1561 489 1618 c 4
 497 1620 500 1617 500 1610 c 6
 500 1609 l 6
 500 1602 498 1597 491 1595 c 4
 272 1524 165 1239 165 838 c 262
 165 412 l 262
 165 11 272 -274 491 -345 c 4
 498 -347 500 -352 500 -359 c 6
 500 -360 l 6
 500 -367 497 -370 489 -368 c 4
 239 -311 130 7 130 412 c 262
 130 838 l 262
EndSplineSet
EndChar

StartChar: parenright
Encoding: 41 41 73
Width: 535
VWidth: 2048
Flags: HMW
LayerCount: 2
Fore
SplineSet
405 412 m 258
 405 7 296 -311 46 -368 c 0
 38 -370 35 -367 35 -360 c 2
 35 -359 l 2
 35 -352 37 -347 44 -345 c 0
 263 -274 370 11 370 412 c 258
 370 838 l 258
 370 1239 263 1524 44 1595 c 0
 37 1597 35 1602 35 1609 c 2
 35 1610 l 2
 35 1617 38 1620 46 1618 c 0
 296 1561 405 1243 405 838 c 258
 405 412 l 258
EndSplineSet
EndChar

StartChar: asterisk
Encoding: 42 42 74
Width: 914
VWidth: 2048
Flags: HMW
LayerCount: 2
Back
SplineSet
462 1020 m 261
 452 1020 l 261
 439 1370 l 6
 438.751281204 1376.69627527 438.733662078 1383.34155195 439 1390 c 6
 441 1440 l 6
 441.274315782 1446.85789456 445 1450 452 1450 c 6
 462 1450 l 6
 469 1450 472.725684218 1446.85789456 473 1440 c 6
 475 1390 l 6
 475.266312962 1383.34217596 475.248740322 1376.69685482 475 1370 c 6
 462 1020 l 261
EndSplineSet
Fore
SplineSet
459 1015 m 261
 455 1025 l 261
 784 1145 l 6
 790 1147 797 1149 803 1151 c 6
 852 1165 l 6
 859 1167 862 1165 864 1158 c 6
 867 1148 l 6
 869 1141 867 1137 861 1135 c 6
 814 1117 l 6
 808 1115 801 1113 795 1111 c 6
 459 1015 l 261
453 1017 m 257
 461 1023 l 257
 677 747 l 2
 681 742 685 737 689 731 c 2
 717 690 l 2
 721 684 720 679 714 675 c 2
 706 669 l 2
 700 665 695 666 691 671 c 2
 660 710 l 2
 656 715 652 720 648 726 c 2
 453 1017 l 257
453 1023 m 257
 461 1017 l 257
 266 726 l 2
 262 720 258 715 254 710 c 2
 223 671 l 2
 219 666 214 665 208 669 c 2
 200 675 l 2
 194 679 193 684 197 690 c 2
 225 731 l 2
 229 737 233 742 237 747 c 2
 453 1023 l 257
459 1025 m 257
 455 1015 l 257
 119 1111 l 2
 113 1113 106 1115 100 1117 c 2
 53 1135 l 2
 47 1137 44 1141 46 1148 c 2
 50 1158 l 2
 52 1165 56 1167 63 1165 c 2
 111 1151 l 2
 117 1149 124 1147 130 1145 c 2
 459 1025 l 257
462 1020 m 257
 452 1020 l 257
 439 1370 l 2
 439 1377 439 1383 439 1390 c 2
 441 1440 l 2
 441 1447 445 1450 452 1450 c 2
 462 1450 l 2
 469 1450 473 1447 473 1440 c 2
 475 1390 l 2
 475 1383 475 1377 475 1370 c 2
 462 1020 l 257
EndSplineSet
EndChar

StartChar: at
Encoding: 64 64 75
Width: 1990
VWidth: 1920
Flags: HMW
LayerCount: 2
Fore
SplineSet
1275 492 m 261
 1275 202 1158 40 961 40 c 256
 794 40 645 157 645 497 c 258
 645 528 l 258
 645 848 784 985 951 985 c 256
 1158 985 1275 823 1275 533 c 257
 1255 533 l 257
 1255 783 1148 955 951 955 c 256
 804 955 675 833 675 523 c 258
 675 492 l 258
 675 182 814 70 961 70 c 256
 1148 70 1255 242 1255 492 c 257
 1275 492 l 261
1332 -255 m 0
 1264 -315 1145 -360 985 -360 c 256
 458 -360 180 13 180 493 c 258
 180 583 l 258
 180 1093 528 1435 1025 1435 c 256
 1592 1435 1810 1024 1810 633 c 258
 1810 543 l 258
 1810 183 1677 40 1490 40 c 256
 1283 40 1255 185 1255 405 c 258
 1255 595 l 257
 1258 975 l 2
 1258 980 1267 985 1274 985 c 2
 1275 985 l 2
 1282 985 1285 982 1285 975 c 2
 1285 405 l 258
 1285 211 1303 70 1490 70 c 256
 1707 70 1780 303 1780 543 c 258
 1780 633 l 258
 1780 1003 1572 1405 1025 1405 c 256
 538 1405 210 1043 210 593 c 258
 210 483 l 258
 210 43 458 -330 985 -330 c 256
 1147 -330 1247 -282 1319 -225 c 0
 1326 -219 1329 -221 1332 -228 c 2
 1336 -237 l 2
 1339 -244 1339 -249 1332 -255 c 0
EndSplineSet
EndChar

StartChar: dollar
Encoding: 36 36 76
Width: 1110
VWidth: 1920
Flags: HMW
LayerCount: 2
Fore
SplineSet
140 508 m 2
 155 508 l 2
 158 508 165 507 165 500 c 2
 165 430 l 2
 165 196 280 -5 560 -5 c 256
 828 -5 933 164 933 345 c 256
 933 492 842 615 538 684 c 256
 267 746 170 885 170 1063 c 256
 170 1293 303 1435 540 1435 c 256
 814 1435 920 1256 920 1041 c 2
 920 971 l 2
 920 964 915 963 910 963 c 2
 895 963 l 2
 890 963 885 964 885 971 c 2
 885 1031 l 2
 885 1236 785 1405 540 1405 c 256
 333 1405 208 1283 208 1063 c 256
 208 902 290 774 548 715 c 256
 847 647 970 516 970 348 c 256
 970 151 869 -35 560 -35 c 256
 252 -35 131 183 131 419 c 2
 131 499 l 2
 131 506 137 508 140 508 c 2
545 1590 m 2
 545 1590 l 6
 552 1590 555 1587 555 1580 c 6
 555 -180 l 6
 555 -187 552 -190 545 -190 c 6
 545 -190 l 2
 538 -190 535 -187 535 -180 c 2
 535 1580 l 2
 535 1587 538 1590 545 1590 c 2
EndSplineSet
EndChar

StartChar: numbersign
Encoding: 35 35 77
Width: 1300
VWidth: 1920
Flags: HMW
LayerCount: 2
Fore
SplineSet
80 460 m 2
 1140 460 l 2
 1147 460 1150 457 1150 450 c 2
 1150 440 l 2
 1150 433 1148 430 1140 430 c 2
 80 430 l 2
 73 430 70 433 70 440 c 2
 70 450 l 2
 70 457 73 460 80 460 c 2
160 1050 m 2
 1220 1050 l 2
 1227 1050 1230 1047 1230 1040 c 2
 1230 1030 l 2
 1230 1023 1227 1020 1220 1020 c 2
 160 1020 l 2
 153 1020 150 1023 150 1030 c 2
 150 1040 l 2
 150 1047 153 1050 160 1050 c 2
990 1400 m 6
 1000 1400 l 2
 1010 1400 1010 1397 1008 1390 c 2
 682 10 l 2
 680 3 680 0 670 0 c 2
 660 0 l 2
 650 0 650 3 652 10 c 2
 978 1390 l 6
 980 1397 980 1400 990 1400 c 6
610 1400 m 2
 620 1400 l 2
 627 1400 630 1397 628 1390 c 2
 302 10 l 2
 300 3 297 0 290 0 c 2
 280 0 l 2
 273 0 270 3 272 10 c 2
 598 1390 l 2
 600 1397 603 1400 610 1400 c 2
EndSplineSet
EndChar

StartChar: slash
Encoding: 47 47 78
Width: 840
VWidth: 2048
Flags: HMW
LayerCount: 2
Fore
SplineSet
746 1390 m 2
 99 -90 l 2
 95 -99 92 -100 85 -100 c 2
 75 -100 l 6
 68 -100 65 -99 69 -90 c 6
 716 1390 l 2
 720 1399 724 1400 730 1400 c 2
 740 1400 l 2
 747 1400 750 1399 746 1390 c 2
EndSplineSet
EndChar

StartChar: percent
Encoding: 37 37 79
Width: 1755
VWidth: 2048
Flags: HMW
LayerCount: 2
Fore
SplineSet
100 1083 m 262
 100 1118 l 262
 100 1308 258 1435 435 1435 c 260
 612 1435 780 1308 780 1118 c 262
 780 1083 l 262
 780 893 612 765 435 765 c 260
 258 765 100 893 100 1083 c 262
135 1083 m 262
 135 913 278 805 435 805 c 260
 602 805 745 913 745 1083 c 262
 745 1118 l 262
 745 1288 602 1395 435 1395 c 260
 278 1395 135 1288 135 1118 c 262
 135 1083 l 262
975 283 m 262
 975 318 l 262
 975 508 1133 635 1310 635 c 260
 1487 635 1655 508 1655 318 c 262
 1655 283 l 262
 1655 93 1487 -35 1310 -35 c 260
 1133 -35 975 93 975 283 c 262
1010 283 m 262
 1010 113 1153 5 1310 5 c 260
 1467 5 1620 113 1620 283 c 262
 1620 318 l 262
 1620 488 1467 595 1310 595 c 260
 1153 595 1010 488 1010 318 c 262
 1010 283 l 262
1379 1390 m 6
 416 10 l 6
 412 3 407 0 400 0 c 6
 380 0 l 6
 373 0 372 3 376 10 c 6
 1339 1390 l 6
 1343 1397 1348 1400 1355 1400 c 6
 1375 1400 l 6
 1382 1400 1383 1397 1379 1390 c 6
EndSplineSet
EndChar

StartChar: hyphen
Encoding: 45 45 80
Width: 570
VWidth: 1920
Flags: HMW
LayerCount: 2
Fore
SplineSet
40 605 m 14
 40 620 l 22
 40 627 43 630 50 630 c 14
 520 630 l 22
 527 630 530 627 530 620 c 14
 530 605 l 22
 530 598 527 595 520 595 c 14
 50 595 l 22
 43 595 40 598 40 605 c 14
EndSplineSet
EndChar

StartChar: underscore
Encoding: 95 95 81
Width: 900
VWidth: 1920
Flags: HMW
LayerCount: 2
Fore
SplineSet
0 -25 m 14
 0 -10 l 18
 0 -3 3 0 10 0 c 10
 890 0 l 18
 897 0 900 -3 900 -10 c 10
 900 -25 l 22
 900 -32 897 -35 890 -35 c 14
 10 -35 l 22
 3 -35 0 -32 0 -25 c 14
EndSplineSet
EndChar

StartChar: plus
Encoding: 43 43 82
Width: 1040
VWidth: 1920
Flags: HMW
LayerCount: 2
Fore
SplineSet
45 685 m 14
 45 700 l 22
 45 707 48 710 55 710 c 14
 985 710 l 22
 992 710 995 707 995 700 c 14
 995 685 l 22
 995 678 992 675 985 675 c 14
 55 675 l 22
 48 675 45 678 45 685 c 14
515 1190 m 10
 525 1190 l 18
 532 1190 535 1187 535 1180 c 10
 535 180 l 18
 535 173 532 170 525 170 c 10
 515 170 l 18
 508 170 505 173 505 180 c 10
 505 1180 l 18
 505 1187 508 1190 515 1190 c 10
EndSplineSet
EndChar

StartChar: equal
Encoding: 61 61 83
Width: 1180
VWidth: 1920
Flags: HMW
LayerCount: 2
Fore
SplineSet
150 345 m 14
 150 350 l 22
 150 357 153 360 160 360 c 14
 1020 360 l 22
 1027 360 1030 357 1030 350 c 14
 1030 345 l 22
 1030 338 1027 335 1020 335 c 14
 160 335 l 22
 153 335 150 338 150 345 c 14
150 645 m 10
 150 650 l 18
 150 657 153 660 160 660 c 10
 1020 660 l 18
 1027 660 1030 657 1030 650 c 10
 1030 645 l 18
 1030 638 1027 635 1020 635 c 10
 160 635 l 18
 153 635 150 638 150 645 c 10
EndSplineSet
EndChar

StartChar: less
Encoding: 60 60 84
Width: 1010
VWidth: 1920
Flags: HMW
LayerCount: 2
Fore
SplineSet
850 156 m 2
 80 574 l 2
 73 578 70 583 70 590 c 2
 70 610 l 2
 70 617 73 622 80 626 c 2
 850 1044 l 2
 857 1048 860 1047 860 1040 c 2
 860 1030 l 2
 860 1023 858 1018 850 1014 c 2
 89 600 l 261
 850 186 l 2
 858 182 860 177 860 170 c 2
 860 160 l 2
 860 153 857 152 850 156 c 2
EndSplineSet
EndChar

StartChar: greater
Encoding: 62 62 85
Width: 1010
VWidth: 1920
Flags: HMW
LayerCount: 2
Fore
SplineSet
160 1044 m 6
 930 626 l 6
 937 622 940 617 940 610 c 6
 940 590 l 6
 940 583 937 578 930 574 c 6
 160 156 l 6
 153 152 150 153 150 160 c 6
 150 170 l 6
 150 177 152 182 160 186 c 6
 921 600 l 261
 160 1014 l 6
 152 1018 150 1023 150 1030 c 6
 150 1040 l 6
 150 1047 153 1048 160 1044 c 6
EndSplineSet
EndChar

StartChar: backslash
Encoding: 92 92 86
Width: 840
VWidth: 2048
Flags: HMW
LayerCount: 2
Fore
SplineSet
94 1390 m 6
 90 1399 93 1400 100 1400 c 6
 110 1400 l 6
 116 1400 120 1399 124 1390 c 6
 771 -90 l 6
 775 -99 772 -100 765 -100 c 6
 755 -100 l 6
 748 -100 745 -99 741 -90 c 6
 94 1390 l 6
EndSplineSet
EndChar

StartChar: bracketleft
Encoding: 91 91 87
Width: 550
VWidth: 1920
Flags: HMW
LayerCount: 2
Fore
SplineSet
180 1570 m 261
 180 -330 l 261
 490 -330 l 2
 497 -330 500 -333 500 -340 c 2
 500 -350 l 2
 500 -357 497 -360 490 -360 c 2
 160 -360 l 2
 153 -360 150 -357 150 -350 c 2
 150 1590 l 2
 150 1597 153 1600 160 1600 c 2
 490 1600 l 2
 497 1600 500 1597 500 1590 c 2
 500 1580 l 2
 500 1573 497 1570 490 1570 c 2
 180 1570 l 261
EndSplineSet
EndChar

StartChar: braceleft
Encoding: 123 123 88
Width: 575
VWidth: 2048
Flags: HMW
LayerCount: 2
Fore
SplineSet
215 1278 m 258
 215 1505 267 1598 465 1600 c 4
 472 1600 475 1597 475 1590 c 2
 475 1580 l 2
 475 1573 472 1570 464 1570 c 4
 285 1566 250 1482 250 1278 c 262
 250 956 l 258
 250 771 192 668 36 620 c 257
 192 572 250 469 250 284 c 262
 250 -38 l 262
 250 -241 285 -324 462 -330 c 4
 472 -330 475 -333 475 -340 c 2
 475 -350 l 2
 475 -357 472 -360 463 -360 c 4
 267 -356 215 -265 215 -38 c 258
 215 284 l 258
 215 497 119 571 22 602 c 0
 13 605 10 609 10 616 c 2
 10 624 l 2
 10 631 13 635 20 637 c 0
 121 670 215 732 215 956 c 258
 215 1278 l 258
EndSplineSet
EndChar

StartChar: bracketright
Encoding: 93 93 89
Width: 550
VWidth: 1920
Flags: HMW
LayerCount: 2
Fore
SplineSet
370 -330 m 257
 370 1570 l 261
 60 1570 l 6
 53 1570 50 1573 50 1580 c 6
 50 1590 l 2
 50 1597 53 1600 60 1600 c 2
 390 1600 l 2
 397 1600 400 1597 400 1590 c 2
 400 -350 l 2
 400 -357 397 -360 390 -360 c 2
 60 -360 l 2
 53 -360 50 -357 50 -350 c 2
 50 -340 l 2
 50 -333 53 -330 60 -330 c 2
 370 -330 l 257
EndSplineSet
EndChar

StartChar: braceright
Encoding: 125 125 90
Width: 575
VWidth: 2048
Flags: HMW
LayerCount: 2
Fore
SplineSet
360 -38 m 262
 360 -265 308 -358 110 -360 c 4
 103 -360 100 -357 100 -350 c 6
 100 -340 l 6
 100 -333 103 -330 111 -330 c 4
 290 -326 325 -242 325 -38 c 262
 325 284 l 262
 325 469 383 572 539 620 c 261
 383 668 325 771 325 956 c 262
 325 1278 l 262
 325 1481 290 1564 113 1570 c 4
 103 1570 100 1573 100 1580 c 6
 100 1590 l 6
 100 1597 103 1600 112 1600 c 4
 308 1596 360 1505 360 1278 c 262
 360 956 l 262
 360 743 456 669 553 638 c 4
 562 635 565 631 565 624 c 6
 565 616 l 6
 565 609 562 605 555 603 c 4
 454 570 360 508 360 284 c 262
 360 -38 l 262
EndSplineSet
EndChar

StartChar: bar
Encoding: 124 124 91
Width: 415
VWidth: 1920
Flags: HMW
LayerCount: 2
Fore
SplineSet
203 1600 m 14
 213 1600 l 22
 220 1600 223 1597 223 1590 c 14
 223 -350 l 22
 223 -357 220 -360 213 -360 c 14
 203 -360 l 22
 196 -360 193 -357 193 -350 c 14
 193 1590 l 22
 193 1597 196 1600 203 1600 c 14
EndSplineSet
EndChar

StartChar: asciitilde
Encoding: 126 126 92
Width: 1330
VWidth: 2048
Flags: HMW
LayerCount: 2
Fore
SplineSet
422 779 m 260
 270 779 213 640 210 447 c 4
 210 441 207 438 200 438 c 2
 190 438 l 2
 183 438 180 441 180 447 c 0
 184 655 251 809 422 809 c 260
 631 809 717 432 909 432 c 260
 1061 432 1118 571 1121 763 c 4
 1121 770 1124 773 1131 773 c 2
 1140 773 l 2
 1147 773 1150 770 1150 763 c 0
 1146 555 1079 402 909 402 c 260
 700 402 614 779 422 779 c 260
EndSplineSet
EndChar

StartChar: asciicircum
Encoding: 94 94 93
Width: 820
VWidth: 1920
Flags: HMW
LayerCount: 2
Fore
SplineSet
410 1361 m 261
 154 740 l 2
 152 734 147 730 140 730 c 2
 120 730 l 2
 113 730 111 734 114 740 c 2
 386 1390 l 2
 390 1399 393 1400 400 1400 c 2
 420 1400 l 2
 427 1400 430 1399 434 1390 c 2
 706 740 l 2
 709 734 712 730 700 730 c 2
 680 730 l 2
 670 730 668 734 666 740 c 2
 410 1361 l 261
EndSplineSet
EndChar

StartChar: figuredash
Encoding: 8210 8210 108
Width: 1150
VWidth: 2048
Flags: HMW
LayerCount: 2
Fore
SplineSet
40 605 m 10
 40 620 l 18
 40 627 43 630 50 630 c 10
 1100 630 l 18
 1107 630 1110 627 1110 620 c 10
 1110 605 l 18
 1110 598 1107 595 1100 595 c 10
 50 595 l 18
 43 595 40 598 40 605 c 10
EndSplineSet
EndChar

StartChar: endash
Encoding: 8211 8211 109
Width: 1100
VWidth: 2048
Flags: HMW
LayerCount: 2
Fore
SplineSet
40 605 m 10
 40 620 l 18
 40 627 43 630 50 630 c 10
 1050 630 l 18
 1057 630 1060 627 1060 620 c 10
 1060 605 l 18
 1060 598 1057 595 1050 595 c 10
 50 595 l 18
 43 595 40 598 40 605 c 10
EndSplineSet
EndChar

StartChar: emdash
Encoding: 8212 8212 110
Width: 2200
VWidth: 2048
Flags: HMW
LayerCount: 2
Fore
SplineSet
40 605 m 10
 40 620 l 18
 40 627 43 630 50 630 c 10
 2150 630 l 18
 2157 630 2160 627 2160 620 c 10
 2160 605 l 18
 2160 598 2157 595 2150 595 c 10
 50 595 l 18
 43 595 40 598 40 605 c 10
EndSplineSet
EndChar

StartChar: uni2015
Encoding: 8213 8213 111
Width: 2360
VWidth: 2048
Flags: HMW
LayerCount: 2
Fore
SplineSet
40 605 m 10
 40 620 l 18
 40 627 43 630 50 630 c 10
 2310 630 l 18
 2317 630 2320 627 2320 620 c 10
 2320 605 l 18
 2320 598 2317 595 2310 595 c 10
 50 595 l 18
 43 595 40 598 40 605 c 10
EndSplineSet
EndChar

StartChar: quoteleft
Encoding: 8216 8216 114
Width: 540
VWidth: 1920
Flags: HMW
LayerCount: 2
Fore
SplineSet
282 1470 m 6
 284 1470 l 6
 291 1470 292 1468 290 1460 c 6
 251 1260 l 261
 258 1260 l 6
 267 1260 268 1259 268 1250 c 6
 268 1060 l 6
 268 1053 265 1050 258 1050 c 6
 238 1050 l 6
 231 1050 228 1053 228 1060 c 6
 228 1240 l 6
 228 1247 228 1253 230 1260 c 6
 272 1460 l 6
 274 1469 276 1470 282 1470 c 6
EndSplineSet
EndChar

StartChar: quotereversed
Encoding: 8219 8219 117
Width: 540
VWidth: 1920
Flags: HMW
LayerCount: 2
Fore
SplineSet
282 1000 m 2
 276 1000 274 1001 272 1010 c 2
 230 1210 l 2
 228 1217 228 1223 228 1230 c 2
 228 1410 l 2
 228 1417 231 1420 238 1420 c 2
 258 1420 l 2
 265 1420 268 1417 268 1410 c 2
 268 1220 l 2
 268 1211 267 1210 258 1210 c 2
 251 1210 l 257
 290 1010 l 2
 292 1002 291 1000 284 1000 c 2
 282 1000 l 2
EndSplineSet
EndChar

StartChar: bullet
Encoding: 8226 8226 120
Width: 690
VWidth: 2048
Flags: HMW
LayerCount: 2
Fore
SplineSet
150 718 m 258
 150 773 l 258
 150 893 243 950 340 950 c 256
 437 950 540 893 540 773 c 258
 540 718 l 258
 540 598 437 540 340 540 c 256
 243 540 150 598 150 718 c 258
EndSplineSet
EndChar

StartChar: dagger
Encoding: 8224 8224 124
Width: 1130
VWidth: 1920
Flags: HMW
LayerCount: 2
Fore
SplineSet
70 1025 m 10
 70 1040 l 18
 70 1047 73 1050 80 1050 c 10
 1050 1050 l 18
 1057 1050 1060 1047 1060 1040 c 10
 1060 1025 l 18
 1060 1018 1057 1015 1050 1015 c 10
 80 1015 l 18
 73 1015 70 1018 70 1025 c 10
560 1400 m 14
 570 1400 l 18
 577 1400 580 1397 580 1390 c 10
 580 10 l 18
 580 3 577 0 570 0 c 10
 560 0 l 22
 553 0 550 3 550 10 c 14
 550 1390 l 22
 550 1397 553 1400 560 1400 c 14
EndSplineSet
EndChar

StartChar: daggerdbl
Encoding: 8225 8225 125
Width: 1130
VWidth: 1920
Flags: HMW
LayerCount: 2
Fore
SplineSet
70 10 m 10
 70 25 l 22
 70 32 73 35 80 35 c 14
 1050 35 l 22
 1057 35 1060 32 1060 25 c 14
 1060 10 l 18
 1060 3 1057 0 1050 0 c 10
 80 0 l 18
 73 0 70 3 70 10 c 10
70 1025 m 10
 70 1040 l 18
 70 1047 73 1050 80 1050 c 10
 1050 1050 l 18
 1057 1050 1060 1047 1060 1040 c 10
 1060 1025 l 18
 1060 1018 1057 1015 1050 1015 c 10
 80 1015 l 18
 73 1015 70 1018 70 1025 c 10
560 1400 m 10
 570 1400 l 18
 577 1400 580 1397 580 1390 c 10
 580 -350 l 18
 580 -357 577 -360 570 -360 c 10
 560 -360 l 18
 553 -360 550 -357 550 -350 c 10
 550 1390 l 18
 550 1397 553 1400 560 1400 c 10
EndSplineSet
EndChar

StartChar: perthousand
Encoding: 8240 8240 126
Width: 2555
VWidth: 2048
Flags: HMW
LayerCount: 2
Fore
SplineSet
1775 283 m 262
 1775 318 l 262
 1775 508 1933 635 2110 635 c 260
 2287 635 2455 508 2455 318 c 262
 2455 283 l 262
 2455 93 2287 -35 2110 -35 c 260
 1933 -35 1775 93 1775 283 c 262
1810 283 m 262
 1810 113 1953 5 2110 5 c 260
 2267 5 2420 113 2420 283 c 262
 2420 318 l 262
 2420 488 2267 595 2110 595 c 260
 1953 595 1810 488 1810 318 c 262
 1810 283 l 262
100 1083 m 262
 100 1118 l 262
 100 1308 258 1435 435 1435 c 260
 612 1435 780 1308 780 1118 c 262
 780 1083 l 262
 780 893 612 765 435 765 c 260
 258 765 100 893 100 1083 c 262
135 1083 m 262
 135 913 278 805 435 805 c 260
 602 805 745 913 745 1083 c 262
 745 1118 l 262
 745 1288 602 1395 435 1395 c 260
 278 1395 135 1288 135 1118 c 262
 135 1083 l 262
975 283 m 262
 975 318 l 262
 975 508 1133 635 1310 635 c 260
 1487 635 1655 508 1655 318 c 262
 1655 283 l 262
 1655 93 1487 -35 1310 -35 c 260
 1133 -35 975 93 975 283 c 262
1010 283 m 262
 1010 113 1153 5 1310 5 c 260
 1467 5 1620 113 1620 283 c 262
 1620 318 l 262
 1620 488 1467 595 1310 595 c 260
 1153 595 1010 488 1010 318 c 262
 1010 283 l 262
1379 1390 m 6
 416 10 l 6
 412 3 407 0 400 0 c 6
 380 0 l 6
 373 0 372 3 376 10 c 6
 1339 1390 l 6
 1343 1397 1348 1400 1355 1400 c 6
 1375 1400 l 6
 1382 1400 1383 1397 1379 1390 c 6
EndSplineSet
EndChar

StartChar: uni2031
Encoding: 8241 8241 127
Width: 3335
VWidth: 2048
Flags: HMW
LayerCount: 2
Fore
SplineSet
2555 283 m 262
 2555 318 l 262
 2555 508 2713 635 2890 635 c 260
 3067 635 3235 508 3235 318 c 262
 3235 283 l 262
 3235 93 3067 -35 2890 -35 c 260
 2713 -35 2555 93 2555 283 c 262
2590 283 m 262
 2590 113 2733 5 2890 5 c 260
 3047 5 3200 113 3200 283 c 262
 3200 318 l 262
 3200 488 3047 595 2890 595 c 260
 2733 595 2590 488 2590 318 c 262
 2590 283 l 262
1775 283 m 258
 1775 318 l 258
 1775 508 1933 635 2110 635 c 256
 2287 635 2455 508 2455 318 c 258
 2455 283 l 258
 2455 93 2287 -35 2110 -35 c 256
 1933 -35 1775 93 1775 283 c 258
1810 283 m 258
 1810 113 1953 5 2110 5 c 256
 2267 5 2420 113 2420 283 c 258
 2420 318 l 258
 2420 488 2267 595 2110 595 c 256
 1953 595 1810 488 1810 318 c 258
 1810 283 l 258
100 1083 m 258
 100 1118 l 258
 100 1308 258 1435 435 1435 c 256
 612 1435 780 1308 780 1118 c 258
 780 1083 l 258
 780 893 612 765 435 765 c 256
 258 765 100 893 100 1083 c 258
135 1083 m 258
 135 913 278 805 435 805 c 256
 602 805 745 913 745 1083 c 258
 745 1118 l 258
 745 1288 602 1395 435 1395 c 256
 278 1395 135 1288 135 1118 c 258
 135 1083 l 258
975 283 m 258
 975 318 l 258
 975 508 1133 635 1310 635 c 256
 1487 635 1655 508 1655 318 c 258
 1655 283 l 258
 1655 93 1487 -35 1310 -35 c 256
 1133 -35 975 93 975 283 c 258
1010 283 m 258
 1010 113 1153 5 1310 5 c 256
 1467 5 1620 113 1620 283 c 258
 1620 318 l 258
 1620 488 1467 595 1310 595 c 256
 1153 595 1010 488 1010 318 c 258
 1010 283 l 258
1379 1390 m 2
 416 10 l 2
 412 3 407 0 400 0 c 2
 380 0 l 2
 373 0 372 3 376 10 c 2
 1339 1390 l 2
 1343 1397 1348 1400 1355 1400 c 2
 1375 1400 l 2
 1382 1400 1383 1397 1379 1390 c 2
EndSplineSet
EndChar

StartChar: fraction
Encoding: 8260 8260 128
Width: 930
VWidth: 1920
Flags: HMW
LayerCount: 2
Fore
SplineSet
812 1277 m 14
 815 1273 l 22
 821 1269 823 1265 819 1259 c 14
 144 163 l 22
 140 157 136 155 130 159 c 14
 127 163 l 22
 121 167 119 171 123 177 c 14
 798 1273 l 22
 802 1279 806 1281 812 1277 c 14
EndSplineSet
EndChar

StartChar: uni2074
Encoding: 8308 8308 129
Width: 676
VWidth: 1920
Flags: HMW
LayerCount: 2
Fore
SplineSet
646 892 m 2
 646 874 l 2
 646 870 644 868 640 868 c 2
 502 868 l 257
 502 636 l 2
 502 632 500 630 496 630 c 2
 474 630 l 2
 470 630 468 632 468 636 c 2
 468 868 l 257
 46 868 l 2
 42 868 40 870 40 874 c 2
 40 904 l 2
 40 908 41 912 44 916 c 2
 462 1464 l 2
 464 1467 468 1470 472 1470 c 2
 496 1470 l 2
 500 1470 502 1468 502 1464 c 2
 502 898 l 257
 640 898 l 2
 644 898 646 896 646 892 c 2
474 898 m 257
 474 1446 l 257
 63 898 l 261
 474 898 l 257
EndSplineSet
EndChar

StartChar: uni2073
Encoding: 8307 8307 130
Width: 721
VWidth: 1920
Flags: HMW
LayerCount: 2
Fore
SplineSet
116 874 m 2
 138 874 l 2
 142 874 144 872 144 868 c 2
 144 826 l 2
 144 704 225 639 350 639 c 0
 500 639 577 713 577 841 c 2
 577 898 l 2
 577 1016 496 1066 350 1066 c 2
 302 1066 l 2
 298 1066 296 1068 296 1072 c 2
 296 1090 l 2
 296 1094 298 1096 302 1096 c 2
 338 1096 l 2
 488 1096 554 1142 554 1244 c 2
 554 1283 l 2
 554 1389 498 1461 358 1461 c 0
 228 1461 159 1391 159 1261 c 2
 159 1207 l 2
 159 1203 157 1201 153 1201 c 2
 137 1201 l 2
 133 1201 131 1203 131 1207 c 2
 131 1261 l 2
 131 1401 200 1491 358 1491 c 0
 516 1491 581 1418 581 1280 c 2
 581 1265 l 2
 581 1115 492 1077 338 1077 c 5
 352 1082 l 1
 506 1082 611 1033 611 883 c 2
 611 838 l 2
 611 694 528 609 350 609 c 0
 199 609 110 689 110 826 c 2
 110 868 l 2
 110 872 112 874 116 874 c 2
EndSplineSet
EndChar

StartChar: uni2072
Encoding: 8306 8306 131
Width: 692
VWidth: 1920
Flags: HMW
LayerCount: 2
Fore
SplineSet
110 693 m 262
 110 909 553 1029 553 1257 c 262
 553 1284 l 258
 553 1400 501 1468 367 1468 c 256
 225 1468 153 1392 153 1238 c 258
 153 1184 l 2
 153 1180 151 1178 147 1178 c 2
 131 1178 l 2
 127 1178 125 1180 125 1184 c 2
 125 1238 l 258
 125 1402 191 1498 367 1498 c 256
 525 1498 581 1419 581 1281 c 258
 581 1254 l 258
 581 1016 132 868 132 675 c 262
 132 669 l 257
 576 669 l 2
 580 669 582 667 582 663 c 2
 582 643 l 2
 582 639 580 637 576 637 c 2
 116 637 l 2
 112 637 110 639 110 643 c 2
 110 693 l 262
EndSplineSet
EndChar

StartChar: uni2070
Encoding: 8304 8304 132
Width: 770
VWidth: 1920
Flags: HMW
LayerCount: 2
Fore
SplineSet
80 923 m 258
 80 1178 l 258
 80 1373 194 1491 385 1491 c 256
 576 1491 690 1373 690 1178 c 258
 690 923 l 258
 690 727 576 609 385 609 c 256
 194 609 80 727 80 923 c 258
  Spiro
    80 923 [
    80 1178 ]
    116.558 1345.68 o
    221.173 1453.26 o
    385 1491 o
    548.827 1453.26 o
    653.442 1345.68 o
    690 1178 [
    690 923 ]
    653.442 754.621 o
    548.827 646.778 o
    385 609 o
    221.173 646.778 o
    116.558 754.621 o
    0 0 z
  EndSpiro
114 935 m 262
 114 756 215 639 385 639 c 256
 555 639 656 756 656 935 c 258
 656 1166 l 258
 656 1345 555 1461 385 1461 c 256
 215 1461 114 1345 114 1166 c 262
 114 935 l 262
EndSplineSet
EndChar

StartChar: uni2075
Encoding: 8309 8309 133
Width: 754
VWidth: 1920
Flags: HMW
LayerCount: 2
Fore
SplineSet
156 844 m 2
 166 844 l 6
 170 844 172 842 172 838 c 4
 180 694 237 632 375 632 c 4
 514 632 590 706 590 872 c 6
 590 917 l 2
 590 1087 510 1186 380 1186 c 0
 218 1186 215 1063 190 1021 c 0
 187 1016 184 1015 180 1015 c 2
 168 1015 l 2
 164 1015 162 1016 163 1021 c 2
 228 1457 l 2
 229 1461 231 1463 235 1463 c 2
 633 1463 l 2
 637 1463 639 1461 639 1457 c 2
 639 1455 l 2
 639 1433 621 1433 519 1433 c 2
 256 1433 l 1
 199 1070 l 1
 186 1070 l 1
 219 1144 224 1216 380 1216 c 0
 510 1216 624 1117 624 919 c 2
 624 880 l 2
 624 692 537 602 375 602 c 4
 215 602 159 694 150 838 c 0
 150 842 152 844 156 844 c 2
EndSplineSet
EndChar

StartChar: uni2076
Encoding: 8310 8310 134
Width: 836
VWidth: 1920
Flags: HMW
LayerCount: 2
Fore
SplineSet
447 1154 m 260
 257 1154 161 1015 161 925 c 262
 161 883 l 261
 145 943 l 261
 145 1101 323 1184 447 1184 c 260
 611 1184 706 1068 706 904 c 262
 706 874 l 262
 706 707 607 609 422 609 c 260
 236 609 130 730 130 946 c 262
 130 1136 l 262
 130 1364 221 1491 417 1491 c 260
 595 1491 673 1389 673 1279 c 262
 673 1261 l 6
 673 1257 671 1255 667 1255 c 6
 647 1255 l 6
 643 1255 641 1257 641 1261 c 6
 641 1279 l 262
 641 1379 585 1461 417 1461 c 260
 251 1461 161 1343 161 1133 c 262
 161 883 l 262
 161 789 230 639 422 639 c 260
 551 639 672 712 672 880 c 262
 672 904 l 262
 672 1054 601 1154 447 1154 c 260
EndSplineSet
EndChar

StartChar: uni2077
Encoding: 8311 8311 135
Width: 652
VWidth: 1920
Flags: HMW
LayerCount: 2
Fore
SplineSet
651 1464 m 2
 238 636 l 6
 236 632 234 630 230 630 c 6
 196 630 l 2
 192 630 190 632 192 636 c 2
 596 1434 l 257
 76 1434 l 2
 72 1434 70 1436 70 1440 c 2
 70 1464 l 2
 70 1468 72 1470 76 1470 c 2
 648 1470 l 2
 652 1470 653 1468 651 1464 c 2
EndSplineSet
EndChar

StartChar: uni2078
Encoding: 8312 8312 136
Width: 812
VWidth: 1920
Flags: HMW
LayerCount: 2
Fore
SplineSet
406 639 m 256
 584 639 638 707 638 855 c 258
 638 886 l 258
 638 1024 504 1056 406 1056 c 256
 308 1056 174 1024 174 886 c 258
 174 855 l 258
 174 707 228 639 406 639 c 256
406 1086 m 260
 576 1086 608 1163 608 1234 c 258
 608 1263 l 262
 608 1389 565 1461 406 1461 c 260
 257 1461 204 1389 204 1263 c 262
 204 1234 l 258
 204 1163 236 1086 406 1086 c 260
425 1076 m 257
 593 1076 672 1004 672 865 c 258
 672 838 l 258
 672 690 611 609 406 609 c 256
 201 609 140 690 140 838 c 258
 140 865 l 258
 140 1004 219 1076 387 1076 c 257
 389 1072 l 257
 229 1075 170 1132 170 1265 c 258
 170 1280 l 258
 170 1413 245 1491 406 1491 c 256
 567 1491 642 1413 642 1280 c 258
 642 1265 l 258
 642 1132 583 1075 423 1072 c 257
 425 1076 l 257
EndSplineSet
EndChar

StartChar: uni2079
Encoding: 8313 8313 137
Width: 826
VWidth: 1920
Flags: HMW
LayerCount: 2
Fore
SplineSet
379 946 m 256
 569 946 665 1085 665 1175 c 258
 665 1217 l 257
 681 1157 l 257
 681 999 503 916 379 916 c 256
 215 916 130 1032 130 1196 c 258
 130 1226 l 258
 130 1393 219 1491 404 1491 c 256
 590 1491 696 1370 696 1154 c 258
 696 964 l 258
 696 736 595 609 399 609 c 260
 221 609 133 711 133 821 c 258
 133 839 l 2
 133 843 135 845 139 845 c 2
 159 845 l 2
 163 845 165 843 165 839 c 2
 165 821 l 258
 165 721 231 639 399 639 c 260
 565 639 665 757 665 967 c 258
 665 1217 l 258
 665 1311 596 1461 404 1461 c 256
 275 1461 164 1388 164 1220 c 258
 164 1196 l 258
 164 1046 225 946 379 946 c 256
EndSplineSet
EndChar

StartChar: uni00B9
Encoding: 185 185 138
Width: 514
VWidth: 1920
Flags: HMW
LayerCount: 2
Fore
SplineSet
251 1436 m 0
 259 1444 258 1460 259 1500 c 0
 259 1507 259 1510 266 1510 c 2
 268 1510 l 2
 275 1510 275 1507 275 1500 c 2
 275 650 l 2
 275 643 272 640 265 640 c 2
 255 640 l 2
 248 640 245 643 245 650 c 2
 245 1424 l 2
 245 1431 248 1433 251 1436 c 0
EndSplineSet
EndChar

StartChar: cent
Encoding: 162 162 154
Width: 988
VWidth: 1920
Flags: HMW
LayerCount: 2
Fore
SplineSet
502 1240 m 6
 507 1240 l 6
 514 1240 517 1237 517 1230 c 6
 517 -180 l 6
 517 -187 514 -190 507 -190 c 6
 502 -190 l 6
 495 -190 492 -187 492 -180 c 6
 492 1230 l 6
 492 1237 495 1240 502 1240 c 6
EndSplineSet
Refer: 40 99 N 1 0 0 1 0 0 2
EndChar

StartChar: uni203D
Encoding: 8253 8253 157
Width: 1080
VWidth: 1920
Flags: HMW
LayerCount: 2
Fore
SplineSet
545 950 m 2
 545 1080 l 2
 545 1087 548 1090 555 1090 c 2
 565 1090 l 2
 572 1090 575 1087 575 1080 c 2
 575 950 l 2
 575 943 575 937 574 930 c 2
 576 410 l 2
 575 403 572 400 565 400 c 2
 565 400 l 2
 558 400 555 403 554 410 c 2
 546 930 l 2
 545 937 545 943 545 950 c 2
565 0 m 6
 545 0 l 2
 538 0 535 3 535 10 c 2
 535 200 l 2
 535 207 538 210 545 210 c 2
 565 210 l 6
 572 210 575 207 575 200 c 6
 575 10 l 6
 575 3 572 0 565 0 c 6
569 400 m 2
 564 400 l 2
 556 400 554 403 554 409 c 0
 561 731 865 768 865 1043 c 258
 865 1068 l 258
 865 1268 796 1405 589 1405 c 256
 369 1405 275 1265 275 1052 c 258
 275 962 l 2
 275 955 272 952 265 952 c 2
 255 952 l 2
 248 952 245 955 245 962 c 2
 245 1052 l 258
 245 1276 352 1435 589 1435 c 256
 816 1435 895 1293 895 1073 c 258
 895 1048 l 258
 895 735 575 713 577 408 c 0
 577 403 576 400 569 400 c 2
EndSplineSet
EndChar

StartChar: ordfeminine
Encoding: 170 170 159
Width: 847
VWidth: 1920
Flags: HMW
LayerCount: 2
Fore
SplineSet
170 834 m 4
 170 720 218 639 346 639 c 260
 550 639 638 806 638 952 c 257
 658 902 l 257
 658 759 537 609 346 609 c 260
 197 609 140 709 140 834 c 4
 140 965 183 1040 419 1079 c 256
 544 1099 638 1159 638 1242 c 257
 648 1202 l 257
 648 1139 540 1074 426 1054 c 256
 218 1017 170 954 170 834 c 4
638 852 m 258
 638 1262 l 258
 638 1402 563 1459 438 1459 c 256
 279 1459 208 1362 198 1226 c 0
 198 1220 195 1217 188 1217 c 2
 178 1217 l 2
 171 1217 168 1220 169 1226 c 0
 193 1379 252 1489 438 1489 c 256
 598 1489 668 1415 668 1257 c 258
 668 852 l 258
 668 758 689 693 725 651 c 0
 729 646 729 644 722 644 c 2
 708 644 l 2
 701 644 695 646 692 650 c 0
 655 693 638 757 638 852 c 258
EndSplineSet
EndChar

StartChar: exclamdown
Encoding: 161 161 160
Width: 540
VWidth: 1920
Flags: HMW
LayerCount: 2
Fore
SplineSet
260 1050 m 2
 280 1050 l 2
 287 1050 290 1047 290 1040 c 2
 290 850 l 2
 290 843 287 840 280 840 c 2
 260 840 l 2
 253 840 250 843 250 850 c 2
 250 1040 l 2
 250 1047 253 1050 260 1050 c 2
285 100 m 2
 285 -390 l 2
 285 -397 282 -400 275 -400 c 2
 265 -400 l 2
 258 -400 255 -397 255 -390 c 2
 255 100 l 2
 255 107 255 193 256 200 c 2
 259 610 l 2
 259 617 262 620 269 620 c 2
 271 620 l 2
 278 620 281 617 281 610 c 2
 284 200 l 2
 284 193 285 107 285 100 c 2
EndSplineSet
EndChar

StartChar: AE
Encoding: 198 198 161
Width: 2200
VWidth: 1920
Flags: HMW
LayerCount: 2
Fore
SplineSet
500 530 m 261
 1190 530 l 257
 1190 500 l 257
 500 500 l 261
 500 530 l 261
1195 1400 m 1
 133 10 l 2
 129 4 127 0 120 0 c 2
 100 0 l 2
 93 0 90 5 93 10 c 2
 1152 1390 l 2
 1155 1395 1158 1400 1165 1400 c 2
 1195 1400 l 1
EndSplineSet
Refer: 16 69 N 1 0 0 1 920 0 2
EndChar

StartChar: questiondown
Encoding: 191 191 162
Width: 1080
VWidth: 1920
Flags: HMW
LayerCount: 2
Fore
SplineSet
572 1050 m 6
 592 1050 l 6
 599 1050 602 1047 602 1040 c 6
 602 850 l 6
 602 843 599 840 592 840 c 6
 572 840 l 6
 565 840 562 843 562 850 c 6
 562 1040 l 6
 562 1047 565 1050 572 1050 c 6
587 650 m 6
 597 650 l 6
 604 650 608 647 608 641 c 4
 591 319 267 272 267 -13 c 262
 267 -48 l 262
 267 -278 376 -405 573 -405 c 260
 793 -405 907 -245 907 -2 c 262
 907 88 l 6
 907 95 910 98 917 98 c 6
 927 98 l 6
 934 98 937 95 937 88 c 6
 937 -2 l 262
 937 -266 820 -435 573 -435 c 260
 356 -435 237 -303 237 -53 c 262
 237 -28 l 262
 237 295 557 337 575 642 c 4
 575 647 580 650 587 650 c 6
EndSplineSet
EndChar

StartChar: yen
Encoding: 165 165 163
Width: 1164
VWidth: 1920
Flags: HMW
LayerCount: 2
Fore
SplineSet
137 385 m 14
 137 390 l 18
 137 397 140 400 147 400 c 10
 1027 400 l 18
 1034 400 1037 397 1037 390 c 10
 1037 385 l 22
 1037 378 1034 375 1027 375 c 14
 147 375 l 22
 140 375 137 378 137 385 c 14
137 555 m 10
 137 560 l 18
 137 567 140 570 147 570 c 10
 1027 570 l 18
 1034 570 1037 567 1037 560 c 10
 1037 555 l 18
 1037 548 1034 545 1027 545 c 10
 147 545 l 18
 140 545 137 548 137 555 c 10
EndSplineSet
Refer: 36 89 N 1 0 0 1 0 0 2
EndChar

StartChar: gravecomb
Encoding: 768 768 164
Width: 0
Flags: HMW
AnchorPoint: "top" -563 1000 mark 0
LayerCount: 2
Fore
SplineSet
-504 1104 m 2
 -524 1104 l 2
 -531 1104 -539 1109 -544 1114 c 2
 -779 1390 l 2
 -784 1395 -786 1400 -779 1400 c 2
 -729 1400 l 2
 -722 1400 -717 1397 -713 1390 c 2
 -500 1114 l 2
 -496 1107 -497 1104 -504 1104 c 2
EndSplineSet
EndChar

StartChar: acutecomb
Encoding: 769 769 165
Width: 0
Flags: HMW
AnchorPoint: "top" -548 1000 mark 0
LayerCount: 2
Fore
SplineSet
-605 1104 m 6
 -612 1104 -613 1107 -609 1114 c 6
 -396 1390 l 6
 -392 1397 -387 1400 -380 1400 c 6
 -330 1400 l 6
 -323 1400 -325 1395 -330 1390 c 6
 -565 1114 l 6
 -570 1109 -578 1104 -585 1104 c 6
 -605 1104 l 6
EndSplineSet
EndChar

StartChar: uni0302
Encoding: 770 770 166
Width: 0
VWidth: 1920
Flags: HMW
AnchorPoint: "top" -559 1000 mark 0
LayerCount: 2
Fore
SplineSet
-560 1381 m 261
 -758 1110 l 6
 -762 1105 -768 1100 -775 1100 c 6
 -780 1100 l 6
 -787 1100 -790 1104 -786 1110 c 6
 -584 1390 l 6
 -579 1398 -577 1400 -570 1400 c 6
 -550 1400 l 6
 -543 1400 -541 1398 -536 1390 c 6
 -324 1110 l 6
 -320 1104 -318 1100 -330 1100 c 6
 -335 1100 l 6
 -345 1100 -348 1105 -352 1110 c 6
 -560 1381 l 261
EndSplineSet
EndChar

StartChar: tildecomb
Encoding: 771 771 167
Width: 0
Flags: HMW
AnchorPoint: "top" -578 1000 mark 0
LayerCount: 2
Fore
SplineSet
-718 1399 m 256
 -790 1399 -842 1350 -855 1217 c 4
 -856 1211 -863 1208 -870 1208 c 2
 -870 1208 l 2
 -877 1208 -880 1211 -880 1217 c 0
 -876 1355 -809 1429 -718 1429 c 256
 -579 1429 -533 1212 -411 1212 c 256
 -339 1212 -287 1261 -274 1393 c 0
 -273 1400 -266 1403 -259 1403 c 2
 -260 1403 l 2
 -253 1403 -250 1400 -250 1393 c 0
 -254 1255 -321 1182 -411 1182 c 256
 -550 1182 -596 1399 -718 1399 c 256
EndSplineSet
EndChar

StartChar: uni0304
Encoding: 772 772 168
Width: 0
VWidth: 1920
Flags: HMW
AnchorPoint: "top" -560 1000 mark 0
LayerCount: 2
Fore
SplineSet
-830 1245 m 14
 -830 1260 l 22
 -830 1267 -827 1270 -820 1270 c 14
 -300 1270 l 22
 -293 1270 -290 1267 -290 1260 c 14
 -290 1245 l 22
 -290 1238 -293 1235 -300 1235 c 14
 -820 1235 l 22
 -827 1235 -830 1238 -830 1245 c 14
EndSplineSet
EndChar

StartChar: uni0306
Encoding: 774 774 169
Width: 0
VWidth: 1920
Flags: HMW
AnchorPoint: "top" -560 1000 mark 0
LayerCount: 2
Fore
SplineSet
-560 1205 m 4
 -390 1205 -315 1319 -315 1427 c 4
 -315 1435 -312 1438 -305 1438 c 6
 -300 1438 l 6
 -293 1438 -289 1435 -290 1424 c 4
 -298 1282 -377 1175 -560 1175 c 4
 -743 1175 -824 1283 -830 1427 c 4
 -830 1435 -827 1438 -820 1438 c 6
 -815 1438 l 6
 -808 1438 -805 1435 -805 1425 c 4
 -804 1315 -728 1205 -560 1205 c 4
EndSplineSet
EndChar

StartChar: uni0307
Encoding: 775 775 170
Width: 0
Flags: HMW
AnchorPoint: "top" -548 1000 mark 0
LayerCount: 2
Fore
SplineSet
-522 1264 m 6
 -578 1264 l 6
 -580 1264 -582 1264 -582 1266 c 6
 -582 1324 l 6
 -582 1326 -580 1326 -578 1326 c 6
 -522 1326 l 6
 -520 1326 -518 1326 -518 1324 c 6
 -518 1266 l 6
 -518 1264 -520 1264 -522 1264 c 6
EndSplineSet
EndChar

StartChar: uni0308
Encoding: 776 776 171
Width: 0
Flags: HMW
AnchorPoint: "top" -548 1000 mark 0
LayerCount: 2
Fore
SplineSet
-629 1264 m 2
 -686 1264 l 2
 -688 1264 -689 1264 -689 1266 c 2
 -689 1324 l 2
 -689 1326 -688 1326 -686 1326 c 2
 -629 1326 l 2
 -627 1326 -626 1326 -626 1324 c 2
 -626 1266 l 2
 -626 1264 -627 1264 -629 1264 c 2
-424 1264 m 6
 -481 1264 l 6
 -483 1264 -484 1264 -484 1266 c 6
 -484 1324 l 6
 -484 1326 -483 1326 -481 1326 c 6
 -424 1326 l 6
 -422 1326 -421 1326 -421 1324 c 6
 -421 1266 l 6
 -421 1264 -422 1264 -424 1264 c 6
EndSplineSet
EndChar

StartChar: uni030A
Encoding: 778 778 172
Width: 0
Flags: HMW
AnchorPoint: "top" -554 1000 mark 0
LayerCount: 2
Fore
SplineSet
-360 1312 m 0
 -360 1208 -450 1122 -554 1122 c 0
 -660 1122 -750 1206 -750 1312 c 0
 -750 1414 -660 1502 -554 1502 c 0
 -448 1502 -360 1420 -360 1312 c 0
-390 1312 m 4
 -390 1408 -460 1472 -554 1472 c 4
 -648 1472 -720 1402 -720 1312 c 4
 -720 1218 -648 1152 -554 1152 c 4
 -462 1152 -390 1222 -390 1312 c 4
EndSplineSet
EndChar

StartChar: uni030B
Encoding: 779 779 173
Width: 0
Flags: HMW
AnchorPoint: "top" -618 1000 mark 0
LayerCount: 2
Fore
SplineSet
-485 1104 m 6
 -492 1104 -493 1107 -489 1114 c 6
 -276 1390 l 6
 -272 1397 -267 1400 -260 1400 c 6
 -210 1400 l 6
 -203 1400 -205 1395 -210 1390 c 6
 -445 1114 l 6
 -450 1109 -458 1104 -465 1104 c 6
 -485 1104 l 6
-755 1104 m 6
 -762 1104 -763 1107 -759 1114 c 6
 -546 1390 l 6
 -542 1397 -537 1400 -530 1400 c 6
 -480 1400 l 6
 -473 1400 -475 1395 -480 1390 c 6
 -715 1114 l 6
 -720 1109 -728 1104 -735 1104 c 6
 -755 1104 l 6
EndSplineSet
EndChar

StartChar: uni030C
Encoding: 780 780 174
Width: 0
Flags: HMW
AnchorPoint: "top" -554 1000 mark 0
LayerCount: 2
Fore
SplineSet
-554 1139 m 257
 -356 1410 l 2
 -352 1415 -346 1420 -339 1420 c 2
 -334 1420 l 2
 -327 1420 -324 1416 -328 1410 c 2
 -530 1130 l 2
 -535 1122 -537 1120 -544 1120 c 2
 -564 1120 l 2
 -571 1120 -573 1122 -578 1130 c 2
 -790 1410 l 2
 -794 1416 -796 1420 -784 1420 c 2
 -779 1420 l 2
 -769 1420 -766 1415 -762 1410 c 2
 -554 1139 l 257
EndSplineSet
EndChar

StartChar: uni030F
Encoding: 783 783 175
Width: 0
Flags: HMW
AnchorPoint: "top" -508 1000 mark 0
LayerCount: 2
Fore
SplineSet
-614 1104 m 6
 -634 1104 l 6
 -641 1104 -649 1109 -654 1114 c 6
 -889 1390 l 6
 -894 1395 -896 1400 -889 1400 c 6
 -839 1400 l 6
 -832 1400 -827 1397 -823 1390 c 6
 -610 1114 l 6
 -606 1107 -607 1104 -614 1104 c 6
-344 1104 m 6
 -364 1104 l 6
 -371 1104 -379 1109 -384 1114 c 6
 -619 1390 l 6
 -624 1395 -626 1400 -619 1400 c 6
 -569 1400 l 6
 -562 1400 -557 1397 -553 1390 c 6
 -340 1114 l 6
 -336 1107 -337 1104 -344 1104 c 6
EndSplineSet
EndChar

StartChar: uni0311
Encoding: 785 785 176
Width: 0
Flags: HMW
AnchorPoint: "top" -604 1000 mark 0
LayerCount: 2
Fore
SplineSet
-604 1405 m 0
 -774 1405 -849 1291 -849 1183 c 0
 -849 1175 -852 1172 -859 1172 c 2
 -864 1172 l 2
 -871 1172 -875 1175 -874 1186 c 0
 -866 1328 -787 1435 -604 1435 c 0
 -421 1435 -340 1327 -334 1183 c 0
 -334 1175 -337 1172 -344 1172 c 2
 -349 1172 l 2
 -356 1172 -359 1175 -359 1185 c 0
 -360 1295 -436 1405 -604 1405 c 0
EndSplineSet
EndChar

StartChar: dotbelowcomb
Encoding: 803 803 177
Width: 0
Flags: HMW
AnchorPoint: "bottom" -551 0 mark 0
LayerCount: 2
Fore
SplineSet
-522 -286 m 6
 -578 -286 l 6
 -580 -286 -582 -286 -582 -284 c 6
 -582 -226 l 6
 -582 -224 -580 -224 -578 -224 c 6
 -522 -224 l 6
 -520 -224 -518 -224 -518 -226 c 6
 -518 -284 l 6
 -518 -286 -520 -286 -522 -286 c 6
EndSplineSet
EndChar

StartChar: uni0326
Encoding: 806 806 178
Width: 0
Flags: HMW
AnchorPoint: "bottom" -561 0 mark 0
LayerCount: 2
Fore
SplineSet
-597 -373 m 6
 -606 -373 l 6
 -608 -373 -609 -372 -608 -370 c 6
 -576 -310 l 261
 -597 -310 l 6
 -600 -310 -600 -310 -600 -307 c 6
 -600 -250 l 6
 -600 -248 -599 -247 -597 -247 c 6
 -540 -247 l 6
 -538 -247 -537 -248 -537 -250 c 6
 -537 -304 l 6
 -537 -306 -538 -307 -540 -310 c 6
 -592 -370 l 6
 -594 -372 -595 -373 -597 -373 c 6
EndSplineSet
EndChar

StartChar: uni0327
Encoding: 807 807 179
Width: 1200
Flags: HMW
AnchorPoint: "bottom" -531 0 mark 0
LayerCount: 2
Fore
SplineSet
-633 -500 m 0
 -712 -500 -768 -486 -821 -451 c 0
 -831 -444 -829 -440 -826 -434 c 2
 -822 -426 l 6
 -817 -416 -817 -416 -808 -421 c 4
 -756 -449 -732 -470 -633 -470 c 0
 -499 -470 -459 -404 -459 -342 c 0
 -459 -246 -555 -221 -684 -220 c 0
 -697 -220 -699 -224 -702 -218 c 2
 -703 -216 l 2
 -707 -207 -704 -203 -699 -196 c 2
 -547 10 l 1
 -517 10 l 1
 -691 -211 l 1
 -685 -210 -639 -210 -624 -210 c 0
 -538 -210 -429 -242 -429 -342 c 0
 -429 -430 -489 -500 -633 -500 c 0
EndSplineSet
EndChar

StartChar: uni0328
Encoding: 808 808 180
Width: 1200
Flags: HMW
AnchorPoint: "ogonek" -551 0 mark 0
LayerCount: 2
Fore
SplineSet
-475 -420 m 2
 -475 -430 l 2
 -475 -437 -478 -440 -485 -440 c 2
 -565 -440 l 2
 -733 -440 -811 -358 -811 -240 c 4
 -811 -122 -705 -52 -545 20 c 5
 -535 0 l 1
 -689 -74 -781 -116 -781 -240 c 4
 -781 -352 -715 -410 -555 -410 c 2
 -485 -410 l 2
 -478 -410 -475 -413 -475 -420 c 2
EndSplineSet
EndChar

StartChar: uni0312
Encoding: 786 786 181
Width: 0
Flags: HMW
AnchorPoint: "top" -604 950 mark 0
LayerCount: 2
Fore
SplineSet
-568 1430 m 2
 -566 1430 l 2
 -559 1430 -558 1428 -560 1420 c 2
 -599 1220 l 257
 -592 1220 l 2
 -583 1220 -582 1219 -582 1210 c 2
 -582 1020 l 2
 -582 1013 -585 1010 -592 1010 c 2
 -612 1010 l 2
 -619 1010 -622 1013 -622 1020 c 2
 -622 1200 l 2
 -622 1207 -622 1213 -620 1220 c 2
 -578 1420 l 2
 -576 1429 -574 1430 -568 1430 c 2
EndSplineSet
EndChar

StartChar: sterling
Encoding: 163 163 182
Width: 1280
VWidth: 1920
Flags: HMW
LayerCount: 2
Fore
SplineSet
50 695 m 10
 50 700 l 18
 50 707 53 710 60 710 c 10
 720 710 l 18
 727 710 730 707 730 700 c 10
 730 695 l 18
 730 688 727 685 720 685 c 10
 60 685 l 18
 53 685 50 688 50 695 c 10
84 34 m 0
 200 150 328 305 328 514 c 0
 328 732 140 815 140 1043 c 0
 140 1273 268 1435 555 1435 c 4
 849 1435 937 1266 950 971 c 0
 950 963 947 963 940 963 c 2
 930 963 l 2
 923 963 920 963 920 971 c 0
 906 1256 820 1405 555 1405 c 4
 288 1405 170 1253 170 1043 c 0
 170 822 358 740 358 514 c 0
 358 332 236 121 117 35 c 1
 1030 35 l 2
 1037 35 1040 32 1040 25 c 2
 1040 10 l 2
 1040 3 1037 0 1030 0 c 2
 90 0 l 2
 83 0 80 3 80 10 c 2
 80 25 l 2
 80 29 80 30 84 34 c 0
EndSplineSet
EndChar

StartChar: currency
Encoding: 164 164 183
Width: 1112
Flags: HMW
LayerCount: 2
Fore
SplineSet
998 1164 m 10
 1007 1156 l 18
 1012 1151 1012 1147 1007 1142 c 10
 904 1039 l 18
 899 1034 895 1034 890 1039 c 10
 882 1047 l 18
 877 1052 877 1057 882 1062 c 10
 984 1164 l 18
 989 1169 993 1169 998 1164 c 10
220 386 m 10
 228 378 l 18
 233 373 233 368 228 363 c 10
 116 251 l 18
 111 246 107 246 102 251 c 10
 93 259 l 18
 88 264 88 268 93 273 c 10
 206 386 l 18
 211 391 215 391 220 386 c 10
93 1156 m 10
 102 1164 l 18
 107 1169 111 1169 116 1164 c 10
 228 1052 l 18
 233 1047 233 1042 228 1037 c 10
 220 1029 l 18
 215 1024 211 1024 206 1029 c 10
 93 1142 l 18
 88 1147 88 1151 93 1156 c 10
882 368 m 14
 890 376 l 22
 895 381 899 381 904 376 c 14
 1007 273 l 18
 1012 268 1012 264 1007 259 c 10
 998 251 l 18
 993 246 989 246 984 251 c 10
 882 353 l 22
 877 358 877 363 882 368 c 14
63 710 m 0
 63 979 284 1200 553 1200 c 0
 822 1200 1043 979 1043 710 c 0
 1043 441 822 220 553 220 c 0
 284 220 63 441 63 710 c 0
93 710 m 0
 93 451 304 250 553 250 c 0
 802 250 1013 451 1013 710 c 0
 1013 959 802 1170 553 1170 c 0
 304 1170 93 959 93 710 c 0
EndSplineSet
EndChar

StartChar: brokenbar
Encoding: 166 166 184
Width: 415
VWidth: 1920
Flags: HMW
LayerCount: 2
Fore
SplineSet
198 430 m 14
 218 430 l 22
 225 430 228 427 228 420 c 14
 228 -350 l 22
 228 -357 225 -360 218 -360 c 14
 198 -360 l 22
 191 -360 188 -357 188 -350 c 14
 188 420 l 22
 188 427 191 430 198 430 c 14
198 1600 m 14
 218 1600 l 22
 225 1600 228 1597 228 1590 c 14
 228 820 l 22
 228 813 225 810 218 810 c 14
 198 810 l 22
 191 810 188 813 188 820 c 14
 188 1590 l 22
 188 1597 191 1600 198 1600 c 14
EndSplineSet
EndChar

StartChar: section
Encoding: 167 167 185
Width: 1086
VWidth: 1920
Flags: HMW
LayerCount: 2
Fore
SplineSet
483 870 m 257
 248 860 105 791 105 633 c 256
 105 476 308 349 490 246 c 256
 730 110 875 67 875 -93 c 256
 875 -275 740 -400 513 -400 c 256
 279 -400 194 -267 180 -57 c 0
 180 -51 183 -48 190 -48 c 2
 209 -48 l 2
 216 -48 219 -51 220 -58 c 0
 234 -248 310 -370 513 -370 c 256
 721 -370 845 -253 845 -93 c 256
 845 55 635 131 470 222 c 256
 187 378 75 496 75 633 c 256
 75 815 230 880 484 880 c 257
 483 870 l 257
613 165 m 257
 848 195 981 254 981 432 c 256
 981 589 778 691 596 794 c 256
 356 930 211 998 211 1158 c 256
 211 1340 316 1435 543 1435 c 260
 777 1435 872 1302 886 1092 c 0
 886 1086 883 1083 876 1083 c 2
 867 1083 l 2
 860 1083 857 1086 856 1093 c 0
 842 1273 756 1405 543 1405 c 260
 335 1405 241 1318 241 1158 c 256
 241 1010 450 909 615 818 c 256
 898 662 1011 589 1011 432 c 256
 1011 230 846 155 612 155 c 257
 613 165 l 257
EndSplineSet
EndChar

StartChar: copyright
Encoding: 169 169 186
Width: 1484
Flags: HMW
LayerCount: 2
Fore
SplineSet
1056 549 m 256
 1051 401 932 229 741 229 c 256
 509 229 414 393 414 621 c 258
 414 720 l 258
 414 948 509 1111 741 1111 c 256
 813 1111 1035 1090 1038 834 c 256
 1038 829 1036 828 1032 828 c 258
 1027 828 l 258
 1023 828 1020 829 1020 834 c 256
 1019 994 919 1093 747 1093 c 256
 521 1093 432 936 432 720 c 258
 432 621 l 258
 432 405 521 247 747 247 c 256
 889 247 1028 379 1038 549 c 256
 1038 554 1040 555 1044 555 c 258
 1050 555 l 258
 1054 555 1056 554 1056 549 c 256
1439 668 m 4
 1439 284 1125 -28 741 -28 c 4
 357 -28 45 284 45 668 c 4
 45 1052 357 1366 741 1366 c 4
 1125 1366 1439 1052 1439 668 c 4
1409 668 m 4
 1409 1036 1109 1336 741 1336 c 4
 373 1336 75 1036 75 668 c 4
 75 300 373 2 741 2 c 4
 1109 2 1409 300 1409 668 c 4
EndSplineSet
EndChar

StartChar: registered
Encoding: 174 174 188
Width: 1484
Flags: HMW
LayerCount: 2
Fore
SplineSet
502 1072 m 261
 502 685 l 261
 790 685 l 262
 902 685 1003 741 1003 855 c 262
 1003 875 l 262
 1003 1001 932 1072 790 1072 c 262
 502 1072 l 261
790 1090 m 262
 938 1090 1021 1013 1021 875 c 262
 1021 861 l 262
 1021 735 932 676 790 676 c 261
 790 682 l 261
 944 682 1015 647 1015 503 c 262
 1015 447 l 262
 1015 379 1033 305 1061 264 c 4
 1066 257 1066 256 1066 254 c 6
 1066 253 l 6
 1066 251 1064 250 1060 250 c 6
 1054 250 l 6
 1050 250 1048 250 1045 255 c 4
 1012 314 996 371 996 447 c 262
 996 503 l 262
 996 647 920 673 790 673 c 262
 502 673 l 261
 502 256 l 6
 502 252 500 250 496 250 c 6
 490 250 l 6
 486 250 484 252 484 256 c 6
 484 1084 l 6
 484 1088 486 1090 490 1090 c 6
 790 1090 l 262
1439 668 m 0
 1439 284 1125 -28 741 -28 c 0
 357 -28 45 284 45 668 c 0
 45 1052 357 1366 741 1366 c 0
 1125 1366 1439 1052 1439 668 c 0
1409 668 m 0
 1409 1036 1109 1336 741 1336 c 0
 373 1336 75 1036 75 668 c 0
 75 300 373 2 741 2 c 0
 1109 2 1409 300 1409 668 c 0
EndSplineSet
EndChar

StartChar: dotlessi
Encoding: 305 305 279
Width: 445
VWidth: 1920
Flags: HMW
AnchorPoint: "top" 225 1050 basechar 0
LayerCount: 2
Fore
SplineSet
238 1040 m 6
 238 10 l 6
 238 3 235 0 228 0 c 6
 218 0 l 6
 211 0 208 3 208 10 c 6
 208 1040 l 6
 208 1047 211 1050 218 1050 c 6
 228 1050 l 6
 235 1050 238 1047 238 1040 c 6
EndSplineSet
EndChar

StartChar: uni0237
Encoding: 567 567 291
Width: 445
VWidth: 1920
Flags: HMW
AnchorPoint: "top" 221 1050 basechar 0
LayerCount: 2
Fore
SplineSet
243 -86 m 262
 243 -293 197 -378 -91 -351 c 0
 -99 -350 -102 -347 -102 -340 c 2
 -102 -330 l 2
 -102 -323 -99 -320 -92 -321 c 0
 160 -348 208 -285 208 -88 c 258
 208 1040 l 2
 208 1047 211 1050 218 1050 c 2
 233 1050 l 6
 240 1050 243 1047 243 1040 c 6
 243 -86 l 262
EndSplineSet
EndChar

StartChar: kgreenlandic
Encoding: 312 312 298
Width: 1000
VWidth: 1920
Flags: HMW
LayerCount: 2
Fore
SplineSet
210 1050 m 6
 220 1050 l 6
 227 1050 230 1047 230 1040 c 6
 230 10 l 2
 230 3 227 0 220 0 c 2
 210 0 l 2
 203 0 200 3 200 10 c 2
 200 1040 l 6
 200 1047 203 1050 210 1050 c 6
200 473 m 257
 831 1040 l 2
 839 1048 842 1050 850 1050 c 2
 870 1050 l 2
 877 1050 878 1048 869 1040 c 2
 220 463 l 257
 200 473 l 257
480 703 m 257
 500 723 l 257
 934 10 l 2
 939 3 937 0 930 0 c 2
 915 0 l 2
 907 0 903 3 899 10 c 2
 480 703 l 257
EndSplineSet
EndChar

StartChar: grave
Encoding: 96 96 339
Width: 623
VWidth: 0
Flags: HMW
LayerCount: 2
Fore
SplineSet
416 1104 m 6
 396 1104 l 6
 389 1104 381 1109 376 1114 c 6
 141 1390 l 6
 136 1395 134 1400 141 1400 c 6
 191 1400 l 6
 198 1400 203 1397 207 1390 c 6
 420 1114 l 6
 424 1107 423 1104 416 1104 c 6
EndSplineSet
EndChar

StartChar: longs
Encoding: 383 383 352
Width: 620
VWidth: 1920
Flags: HMW
LayerCount: 2
Fore
SplineSet
250 1188 m 262
 250 1395 291 1469 578 1441 c 4
 587 1440 590 1437 590 1430 c 6
 590 1425 l 6
 590 1418 587 1416 574 1417 c 4
 311 1446 285 1383 285 1188 c 262
 285 10 l 6
 285 3 282 0 275 0 c 6
 260 0 l 6
 253 0 250 3 250 10 c 6
 250 1188 l 262
EndSplineSet
EndChar

StartChar: uni0259
Encoding: 601 601 359
Width: 1110
VWidth: 1920
Flags: HMW
LayerCount: 2
Fore
SplineSet
186 721 m 4
 216 885 295 1085 588 1085 c 260
 817 1085 964 912 964 602 c 262
 964 447 l 262
 964 147 807 -35 580 -35 c 260
 323 -35 218 161 194 376 c 260
 186 447 186 432 186 516 c 4
 186 521 189 524 196 524 c 6
 950 524 l 261
 950 495 l 261
 215 495 l 261
 220 158 357 -10 580 -10 c 260
 797 -10 934 177 934 447 c 262
 934 602 l 262
 934 872 806 1060 589 1060 c 260
 337 1060 245 896 213 718 c 4
 212 714 209 712 202 712 c 6
 194 712 l 6
 187 712 185 715 186 721 c 4
EndSplineSet
EndChar

StartChar: logicalnot
Encoding: 172 172 373
Width: 1150
VWidth: 2048
Flags: HMW
LayerCount: 2
Fore
SplineSet
130 675 m 2
 130 690 l 2
 130 697 133 700 140 700 c 2
 970 700 l 2
 977 700 980 697 980 690 c 2
 980 325 l 2
 980 318 977 315 970 315 c 2
 960 315 l 6
 953 315 950 318 950 325 c 6
 950 665 l 5
 140 665 l 2
 133 665 130 668 130 675 c 2
EndSplineSet
EndChar

StartChar: acute
Encoding: 180 180 374
Width: 619
VWidth: 0
Flags: HMW
LayerCount: 2
Fore
SplineSet
145 1104 m 6
 138 1104 137 1107 141 1114 c 6
 354 1390 l 6
 358 1397 363 1400 370 1400 c 6
 420 1400 l 6
 427 1400 425 1395 420 1390 c 6
 185 1114 l 6
 180 1109 172 1104 165 1104 c 6
 145 1104 l 6
EndSplineSet
EndChar

StartChar: degree
Encoding: 176 176 376
Width: 880
VWidth: 2048
Flags: HMW
LayerCount: 2
Fore
SplineSet
100 1083 m 258
 100 1118 l 258
 100 1308 258 1435 435 1435 c 256
 612 1435 780 1308 780 1118 c 258
 780 1083 l 258
 780 893 612 765 435 765 c 256
 258 765 100 893 100 1083 c 258
135 1073 m 262
 135 913 278 795 435 795 c 260
 592 795 745 913 745 1073 c 262
 745 1128 l 262
 745 1288 592 1405 435 1405 c 260
 278 1405 135 1288 135 1128 c 262
 135 1073 l 262
EndSplineSet
EndChar

StartChar: plusminus
Encoding: 177 177 377
Width: 1168
Flags: HMW
LayerCount: 2
Fore
SplineSet
105 260 m 14
 105 265 l 22
 105 272 108 275 115 275 c 14
 1045 275 l 22
 1052 275 1055 272 1055 265 c 14
 1055 260 l 22
 1055 253 1052 250 1045 250 c 14
 115 250 l 22
 108 250 105 253 105 260 c 14
105 1035 m 10
 105 1050 l 18
 105 1057 108 1060 115 1060 c 10
 1045 1060 l 18
 1052 1060 1055 1057 1055 1050 c 10
 1055 1035 l 18
 1055 1028 1052 1025 1045 1025 c 10
 115 1025 l 18
 108 1025 105 1028 105 1035 c 10
575 1490 m 10
 585 1490 l 18
 592 1490 595 1487 595 1480 c 10
 595 580 l 18
 595 573 592 570 585 570 c 10
 575 570 l 18
 568 570 565 573 565 580 c 10
 565 1480 l 18
 565 1487 568 1490 575 1490 c 10
EndSplineSet
EndChar

StartChar: ae
Encoding: 230 230 379
Width: 1738
VWidth: 1920
Flags: HMW
LayerCount: 2
Fore
SplineSet
170 263 m 0
 170 59 282 -5 430 -5 c 256
 684 -5 838 232 838 398 c 257
 853 378 l 257
 853 175 677 -35 426 -35 c 256
 247 -35 140 55 140 260 c 0
 140 431 249 555 539 595 c 256
 723 620 838 675 838 758 c 257
 858 738 l 257
 858 655 716 595 546 570 c 256
 267 528 170 413 170 263 c 0
838 368 m 265
 838 778 l 258
 838 938 772 1060 557 1060 c 256
 328 1060 226 948 207 742 c 0
 206 736 204 733 197 733 c 2
 188 733 l 2
 181 733 178 736 179 742 c 0
 203 965 312 1085 558 1085 c 256
 787 1085 868 951 868 773 c 258
 868 368 l 257
 838 368 l 265
1617 329 m 4
 1587 165 1508 -35 1215 -35 c 260
 986 -35 839 138 839 448 c 262
 839 603 l 262
 839 903 996 1085 1223 1085 c 260
 1480 1085 1585 889 1609 674 c 260
 1617 603 1617 618 1617 534 c 4
 1617 529 1614 526 1607 526 c 6
 853 526 l 261
 853 555 l 261
 1588 555 l 261
 1583 892 1446 1060 1223 1060 c 260
 1006 1060 869 873 869 603 c 262
 869 448 l 262
 869 178 997 -10 1214 -10 c 260
 1466 -10 1558 154 1590 332 c 4
 1591 336 1594 338 1601 338 c 6
 1609 338 l 6
 1616 338 1618 335 1617 329 c 4
EndSplineSet
EndChar

StartChar: paragraph
Encoding: 182 182 380
Width: 1070
VWidth: 1920
Flags: HMW
LayerCount: 2
Fore
SplineSet
885 1365 m 5
 885 -350 l 6
 885 -357 882 -360 875 -360 c 6
 865 -360 l 6
 858 -360 854 -357 855 -350 c 6
 855 1365 l 5
 605 1365 l 5
 605 -350 l 6
 604 -357 602 -360 595 -360 c 6
 585 -360 l 6
 578 -360 575 -357 575 -350 c 6
 575 600 l 5
 495 600 l 2
 288 600 100 698 100 968 c 2
 100 1032 l 2
 100 1302 288 1400 495 1400 c 2
 1025 1400 l 2
 1032 1400 1035 1397 1035 1390 c 2
 1035 1375 l 2
 1035 1368 1032 1365 1025 1365 c 2
 885 1365 l 5
EndSplineSet
EndChar

StartChar: guilsinglleft
Encoding: 8249 8249 381
Width: 630
Flags: HMW
LayerCount: 2
Fore
SplineSet
460 216 m 6
 170 539 l 6
 163 543 160 548 160 555 c 6
 160 565 l 6
 160 572 163 577 170 581 c 6
 460 874 l 6
 467 878 470 877 470 870 c 6
 470 860 l 6
 470 853 468 848 460 844 c 6
 182 557 l 261
 460 251 l 6
 468 247 470 242 470 235 c 6
 470 220 l 6
 470 213 467 212 460 216 c 6
EndSplineSet
EndChar

StartChar: guilsinglright
Encoding: 8250 8250 382
Width: 630
Flags: HW
LayerCount: 2
Fore
SplineSet
170 874 m 2
 460 551 l 2
 467 547 470 542 470 535 c 2
 470 525 l 2
 470 518 467 513 460 509 c 2
 170 216 l 2
 163 212 160 213 160 220 c 2
 160 230 l 2
 160 237 162 242 170 246 c 2
 448 533 l 257
 170 839 l 2
 162 843 160 848 160 855 c 2
 160 870 l 2
 160 877 163 878 170 874 c 2
EndSplineSet
EndChar

StartChar: mu
Encoding: 181 181 385
Width: 1110
VWidth: 1920
Flags: HW
LayerCount: 2
Fore
SplineSet
213 1050 m 6
 223 1050 l 6
 230 1050 233 1047 233 1040 c 6
 233 -350 l 6
 233 -357 230 -360 223 -360 c 6
 213 -360 l 6
 206 -360 203 -357 203 -350 c 6
 203 1040 l 6
 203 1047 206 1050 213 1050 c 6
894 0 m 2
 892 0 l 2
 885 0 883 3 883 10 c 2
 883 383 l 257
 873 410 l 257
 873 1040 l 2
 873 1047 876 1050 883 1050 c 2
 893 1050 l 2
 900 1050 903 1047 903 1040 c 2
 903 10 l 2
 903 3 901 0 894 0 c 2
893 427 m 257
 893 207 715 -35 498 -35 c 256
 301 -35 213 87 213 287 c 258
 213 1040 l 2
 213 1047 211 1050 218 1050 c 2
 223 1050 l 2
 230 1050 233 1047 233 1040 c 2
 233 287 l 258
 233 107 311 -10 498 -10 c 256
 695 -10 873 217 873 427 c 257
 893 427 l 257
EndSplineSet
EndChar

StartChar: Eth
Encoding: 208 208 387
Width: 1273
VWidth: 1920
Flags: HW
LayerCount: 2
Fore
SplineSet
-4 705 m 14
 -4 720 l 22
 -4 727 -1 730 6 730 c 14
 616 730 l 22
 623 730 626 727 626 720 c 14
 626 705 l 22
 626 698 623 695 616 695 c 14
 6 695 l 22
 -1 695 -4 698 -4 705 c 14
EndSplineSet
Refer: 15 68 N 1 0 0 1 0 0 2
EndChar

StartChar: Dcroat
Encoding: 272 272 388
Width: 1273
VWidth: 1920
Flags: HW
LayerCount: 2
Fore
SplineSet
-4 705 m 14
 -4 720 l 22
 -4 727 -1 730 6 730 c 14
 616 730 l 22
 623 730 626 727 626 720 c 14
 626 705 l 22
 626 698 623 695 616 695 c 14
 6 695 l 22
 -1 695 -4 698 -4 705 c 14
EndSplineSet
Refer: 15 68 N 1 0 0 1 0 0 2
EndChar

StartChar: thorn
Encoding: 254 254 389
Width: 1135
VWidth: 1920
Flags: HW
LayerCount: 2
Fore
SplineSet
127 1450 m 2
 143 1450 l 2
 150 1450 150 1447 150 1440 c 2
 150 -350 l 2
 150 -357 147 -360 140 -360 c 2
 130 -360 l 2
 123 -360 120 -357 120 -350 c 2
 120 1440 l 2
 120 1447 120 1450 127 1450 c 2
135 633 m 257
 135 903 361 1085 578 1085 c 256
 784 1085 1018 943 1018 603 c 258
 1018 447 l 258
 1018 127 793 -35 587 -35 c 256
 343 -35 135 157 135 417 c 257
 150 437 l 257
 150 197 344 -5 587 -5 c 256
 775 -5 988 147 988 447 c 258
 988 603 l 258
 988 923 766 1055 578 1055 c 256
 353 1055 150 853 150 613 c 257
 135 633 l 257
EndSplineSet
EndChar

StartChar: Thorn
Encoding: 222 222 390
Width: 1280
VWidth: 1920
Flags: HW
LayerCount: 2
Fore
SplineSet
700 1100 m 6
 987 1100 1095 1052 1095 782 c 2
 1095 718 l 2
 1095 448 987 400 700 400 c 6
 280 400 l 1
 280 10 l 2
 280 3 277 0 270 0 c 2
 260 0 l 2
 253 0 250 3 250 10 c 2
 250 1390 l 2
 250 1397 253 1400 260 1400 c 2
 270 1400 l 2
 277 1400 280 1397 280 1390 c 2
 280 1100 l 1
 700 1100 l 6
280 430 m 1
 700 430 l 6
 987 430 1065 488 1065 718 c 2
 1065 782 l 2
 1065 1022 987 1070 700 1070 c 6
 280 1070 l 1
 280 430 l 1
EndSplineSet
EndChar

StartChar: divide
Encoding: 247 247 391
Width: 1169
VWidth: 2048
Flags: HW
LayerCount: 2
Fore
SplineSet
70 685 m 14
 70 700 l 22
 70 707 73 710 80 710 c 14
 1060 710 l 22
 1067 710 1070 707 1070 700 c 14
 1070 685 l 22
 1070 678 1067 675 1060 675 c 14
 80 675 l 22
 73 675 70 678 70 685 c 14
EndSplineSet
Refer: 1 46 N 1 0 0 1 306 990 2
Refer: 1 46 N 1 0 0 1 306 180 2
EndChar

StartChar: multiply
Encoding: 215 215 392
Width: 1060
VWidth: 1920
Flags: HW
LayerCount: 2
Fore
SplineSet
866 377 m 14
 865 376 l 18
 860 371 856 371 851 376 c 10
 193 1034 l 18
 188 1039 188 1043 193 1048 c 10
 195 1049 l 22
 200 1054 204 1054 209 1049 c 14
 866 391 l 22
 871 386 871 382 866 377 c 14
205 366 m 10
 193 377 l 18
 188 382 188 386 193 391 c 10
 851 1049 l 18
 856 1054 860 1054 865 1049 c 10
 866 1048 l 18
 871 1043 871 1039 866 1034 c 10
 209 376 l 18
 204 371 210 361 205 366 c 10
EndSplineSet
EndChar

StartChar: Oslash
Encoding: 216 216 393
Width: 1365
VWidth: 1920
Flags: HW
LayerCount: 2
Fore
SplineSet
1116 1486 m 2
 1124 1480 l 6
 1130 1476 1132 1472 1128 1466 c 6
 248 -58 l 6
 244 -64 240 -66 234 -62 c 6
 226 -56 l 2
 220 -52 218 -48 222 -42 c 2
 1102 1482 l 2
 1106 1488 1110 1490 1116 1486 c 2
EndSplineSet
Refer: 26 79 N 1 0 0 1 0 0 2
EndChar

StartChar: oslash
Encoding: 248 248 394
Width: 1110
VWidth: 1920
Flags: HW
LayerCount: 2
Fore
SplineSet
897 1169 m 2
 906 1163 l 6
 912 1159 914 1155 910 1149 c 6
 200 -81 l 6
 196 -87 192 -89 186 -85 c 6
 177 -79 l 2
 171 -75 169 -71 173 -65 c 2
 883 1165 l 2
 887 1171 891 1173 897 1169 c 2
EndSplineSet
Refer: 52 111 N 1 0 0 1 0 0 2
EndChar

StartChar: germandbls
Encoding: 223 223 396
Width: 1210
VWidth: 1920
Flags: HW
LayerCount: 2
Fore
SplineSet
220 1188 m 2
 220 1362 287 1487 517 1487 c 0
 750 1487 872 1372 872 1205 c 0
 872 1008 652 948 652 828 c 4
 652 559 1092 593 1092 302 c 0
 1092 90 973 -35 613 -35 c 0
 604 -35 603 -34 603 -25 c 2
 603 -15 l 2
 603 -6 604 -5 613 -5 c 4
 948 -4 1062 114 1062 302 c 4
 1062 575 622 537 622 828 c 0
 622 970 842 1025 842 1205 c 0
 842 1346 739 1457 517 1457 c 0
 315 1457 255 1341 255 1188 c 2
 255 10 l 2
 255 3 252 0 245 0 c 2
 230 0 l 2
 223 0 220 3 220 10 c 2
 220 1188 l 2
EndSplineSet
EndChar

StartChar: eth
Encoding: 240 240 397
Width: 1104
VWidth: 1920
Flags: HW
LayerCount: 2
Fore
SplineSet
182 1172 m 10
 178 1185 l 18
 175 1191 177 1195 183 1198 c 10
 719 1448 l 18
 725 1451 729 1450 732 1444 c 10
 735 1431 l 18
 738 1425 736 1421 730 1418 c 10
 195 1167 l 18
 189 1164 185 1166 182 1172 c 10
469 1055 m 256
 249 1055 160 830 160 567 c 262
 160 457 l 262
 160 177 291 -5 550 -5 c 256
 867 -5 909 252 909 472 c 258
 909 698 l 258
 909 984 592 1312 239 1451 c 0
 229 1455 227 1459 231 1466 c 2
 234 1475 l 2
 238 1483 239 1485 252 1480 c 0
 626 1337 954 999 954 623 c 258
 954 537 l 258
 954 237 907 -35 550 -35 c 256
 258 -35 120 179 120 457 c 262
 120 567 l 262
 120 841 212 1085 469 1085 c 256
 706 1085 929 856 929 662 c 257
 909 472 l 257
 909 602 l 258
 909 855 709 1055 469 1055 c 256
EndSplineSet
EndChar

StartChar: dcroat
Encoding: 273 273 398
Width: 1093
VWidth: 1920
Flags: HW
LayerCount: 2
Fore
SplineSet
696.950195312 1255 m 14
 696.950195312 1270 l 22
 696.950195312 1277 699.950195312 1280 706.950195312 1280 c 14
 1176.95019531 1280 l 22
 1183.95019531 1280 1186.95019531 1277 1186.95019531 1270 c 14
 1186.95019531 1255 l 22
 1186.95019531 1248 1183.95019531 1245 1176.95019531 1245 c 14
 706.950195312 1245 l 22
 699.950195312 1245 696.950195312 1248 696.950195312 1255 c 14
EndSplineSet
Refer: 41 100 N 1 0 0 1 0 0 2
EndChar

StartChar: Hbar
Encoding: 294 294 399
Width: 1271
VWidth: 1920
Flags: HW
LayerCount: 2
Fore
SplineSet
-43 1060 m 10
 -43 1075 l 22
 -43 1082 -40 1085 -33 1085 c 14
 1327 1085 l 22
 1334 1085 1337 1082 1337 1075 c 14
 1337 1060 l 18
 1337 1053 1334 1050 1327 1050 c 10
 -33 1050 l 18
 -40 1050 -43 1053 -43 1060 c 10
EndSplineSet
Refer: 19 72 N 1 0 0 1 0 0 2
EndChar

StartChar: hbar
Encoding: 295 295 400
Width: 986
VWidth: 1920
Flags: HW
LayerCount: 2
Fore
SplineSet
-11 1305 m 14
 -11 1320 l 18
 -11 1327 -8 1330 -1 1330 c 10
 469 1330 l 18
 476 1330 479 1327 479 1320 c 10
 479 1305 l 22
 479 1298 476 1295 469 1295 c 14
 -1 1295 l 22
 -8 1295 -11 1298 -11 1305 c 14
EndSplineSet
Refer: 45 104 N 1 0 0 1 0 0 2
EndChar

StartChar: Lslash
Encoding: 321 321 405
Width: 1050
VWidth: 1920
Flags: HW
LayerCount: 2
Fore
SplineSet
468 1038 m 6
 471 1034 l 6
 475 1028 473 1024 467 1020 c 6
 9 755 l 6
 3 751 -1 753 -5 759 c 6
 -8 763 l 6
 -12 769 -10 773 -4 777 c 6
 454 1042 l 6
 460 1046 464 1044 468 1038 c 6
EndSplineSet
Refer: 23 76 N 1 0 0 1 0 0 2
EndChar

StartChar: lslash
Encoding: 322 322 406
Width: 286
VWidth: 1920
Flags: HW
LayerCount: 2
Fore
SplineSet
404 1038 m 6
 407 1034 l 6
 411 1028 409 1024 403 1020 c 6
 -55 755 l 6
 -61 751 -65 753 -69 759 c 6
 -72 763 l 6
 -76 769 -74 773 -68 777 c 6
 390 1042 l 6
 396 1046 400 1044 404 1038 c 6
EndSplineSet
Refer: 49 108 N 1 0 0 1 0 0 2
EndChar

StartChar: eng
Encoding: 331 331 408
Width: 1110
VWidth: 1920
Flags: HW
LayerCount: 2
Fore
SplineSet
214 1050 m 2
 221 1050 l 2
 228 1050 230 1047 230 1040 c 2
 230 667 l 257
 235 640 l 257
 235 10 l 2
 235 3 232 0 225 0 c 2
 215 0 l 2
 208 0 205 3 205 10 c 2
 205 1040 l 2
 205 1047 207 1050 214 1050 c 2
905 -86 m 6
 905 -293 864 -378 576 -351 c 0
 568 -350 565 -347 565 -340 c 2
 565 -330 l 2
 565 -323 568 -320 575 -321 c 0
 827 -348 875 -285 875 -88 c 2
 875 763 l 2
 875 943 787 1060 600 1060 c 0
 403 1060 235 833 235 623 c 1
 215 623 l 1
 215 843 373 1085 600 1085 c 0
 807 1085 905 963 905 763 c 2
 905 -86 l 6
EndSplineSet
EndChar

StartChar: Eng
Encoding: 330 330 409
Width: 1380
VWidth: 1920
Flags: HW
LayerCount: 2
Fore
SplineSet
1130 1400 m 2
 1140 1400 l 2
 1147 1400 1150 1397 1150 1390 c 2
 1150 -86 l 2
 1150 -293 1109 -378 821 -351 c 0
 813 -350 810 -347 810 -340 c 2
 810 -330 l 2
 810 -323 813 -320 820 -321 c 0
 1072 -348 1120 -285 1120 -88 c 2
 1120 -10 l 1
 260 1363 l 1
 260 10 l 2
 260 3 257 0 250 0 c 2
 240 0 l 2
 233 0 230 3 230 10 c 2
 230 1390 l 2
 230 1397 233 1400 240 1400 c 2
 260 1400 l 2
 268 1400 271 1398 277 1390 c 2
 1120 47 l 25
 1120 1390 l 2
 1120 1397 1123 1400 1130 1400 c 2
EndSplineSet
EndChar

StartChar: oe
Encoding: 339 339 410
Width: 1880
VWidth: 1920
Flags: HW
LayerCount: 2
Fore
SplineSet
130 468 m 258
 130 583 l 258
 130 873 258 1085 555 1085 c 256
 852 1085 980 873 980 583 c 258
 980 468 l 258
 980 178 852 -35 555 -35 c 256
 258 -35 130 178 130 468 c 258
155 468 m 258
 155 198 278 -10 555 -10 c 256
 832 -10 955 198 955 468 c 258
 955 583 l 258
 955 853 832 1060 555 1060 c 256
 278 1060 155 853 155 583 c 258
 155 468 l 258
1734 329 m 0
 1704 165 1625 -35 1332 -35 c 256
 1103 -35 956 138 956 448 c 258
 956 603 l 258
 956 903 1113 1085 1340 1085 c 256
 1597 1085 1702 889 1726 674 c 256
 1734 603 1734 618 1734 534 c 0
 1734 529 1731 526 1724 526 c 2
 970 526 l 257
 970 555 l 257
 1705 555 l 257
 1700 892 1563 1060 1340 1060 c 256
 1123 1060 986 873 986 603 c 258
 986 448 l 258
 986 178 1114 -10 1331 -10 c 256
 1583 -10 1675 154 1707 332 c 0
 1708 336 1711 338 1718 338 c 2
 1726 338 l 2
 1733 338 1735 335 1734 329 c 0
EndSplineSet
EndChar

StartChar: OE
Encoding: 338 338 411
Width: 2130
VWidth: 1920
Flags: HW
LayerCount: 2
Fore
SplineSet
675 1400 m 262
 1120 1400 l 262
 1127 1400 1130 1397 1130 1390 c 262
 1130 10 l 262
 1130 3 1127 0 1120 0 c 262
 675 0 l 262
 361 0 180 241 180 617 c 262
 180 782 l 262
 180 1158 321 1400 675 1400 c 262
675 1370 m 262
 351 1370 210 1150 210 782 c 262
 210 617 l 262
 210 259 381 30 675 30 c 262
 1100 30 l 261
 1100 1370 l 261
 675 1370 l 262
EndSplineSet
Refer: 16 69 N 1 0 0 1 850 0 2
EndChar

StartChar: Tbar
Encoding: 358 358 413
Width: 1108
VWidth: 1920
Flags: HW
LayerCount: 2
Fore
SplineSet
171 740 m 14
 171 755 l 18
 171 762 174 765 181 765 c 10
 931 765 l 18
 938 765 941 762 941 755 c 10
 941 740 l 22
 941 733 938 730 931 730 c 14
 181 730 l 22
 174 730 171 733 171 740 c 14
EndSplineSet
Refer: 31 84 N 1 0 0 1 0 0 2
EndChar

StartChar: tbar
Encoding: 359 359 414
Width: 625
VWidth: 1920
Flags: HW
LayerCount: 2
Fore
SplineSet
33 670 m 14
 33 685 l 18
 33 692 36 695 43 695 c 10
 563 695 l 18
 570 695 573 692 573 685 c 10
 573 670 l 22
 573 663 570 660 563 660 c 14
 43 660 l 22
 36 660 33 663 33 670 c 14
EndSplineSet
Refer: 57 116 N 1 0 0 1 0 0 2
EndChar

StartChar: uni0394
Encoding: 916 916 430
Width: 1280
VWidth: 1920
Flags: HW
LayerCount: 2
Fore
SplineSet
100 0 m 6
 93 0 91 4 93 10 c 2
 612 1390 l 2
 614 1396 618 1400 625 1400 c 2
 635 1400 l 2
 642 1400 646 1396 648 1390 c 2
 1177 10 l 2
 1179 4 1177 0 1170 0 c 2
 100 0 l 6
140 30 m 1
 1129 30 l 1
 630 1355 l 1
 140 30 l 1
EndSplineSet
EndChar

StartChar: uni03A9
Encoding: 937 937 431
Width: 1490
VWidth: 1920
Flags: HW
LayerCount: 2
Fore
SplineSet
833 51 m 0
 1068 134 1360 468 1360 748 c 2
 1360 793 l 2
 1360 1141 1109 1405 745 1405 c 0
 381 1405 130 1141 130 793 c 2
 130 748 l 2
 130 467 423 132 660 50 c 0
 675 45 675 42 675 31 c 2
 675 10 l 2
 675 3 672 0 665 0 c 2
 115 0 l 2
 108 0 105 3 105 10 c 2
 105 25 l 2
 105 32 108 35 115 35 c 2
 610 35 l 1
 378 142 100 453 100 748 c 2
 100 783 l 2
 100 1169 363 1435 745 1435 c 0
 1127 1435 1390 1169 1390 783 c 2
 1390 748 l 2
 1390 453 1109 142 878 35 c 5
 1375 35 l 2
 1382 35 1385 32 1385 25 c 2
 1385 10 l 2
 1385 3 1382 0 1375 0 c 2
 825 0 l 2
 818 0 815 3 815 10 c 2
 815 31 l 2
 815 42 815 45 833 51 c 0
EndSplineSet
EndChar

StartChar: pi
Encoding: 960 960 432
Width: 1255
VWidth: 1920
Flags: HW
LayerCount: 2
Fore
SplineSet
238 1030 m 2
 238 10 l 2
 238 3 235 0 228 0 c 2
 218 0 l 2
 211 0 208 3 208 10 c 2
 208 1030 l 2
 208 1037 211 1040 218 1040 c 2
 228 1040 l 2
 235 1040 238 1037 238 1030 c 2
1215 20 m 6
 1215 10 l 2
 1215 3 1212 0 1205 -1 c 0
 917 -38 940 44 940 252 c 258
 940 1030 l 2
 940 1037 943 1040 950 1040 c 2
 965 1040 l 2
 972 1040 975 1037 975 1030 c 2
 975 252 l 262
 975 55 956 -9 1206 29 c 4
 1212 30 1215 27 1215 20 c 6
40 1025 m 10
 40 1040 l 18
 40 1047 43 1050 50 1050 c 10
 1150 1050 l 18
 1157 1050 1160 1047 1160 1040 c 10
 1160 1025 l 18
 1160 1018 1157 1015 1150 1015 c 10
 50 1015 l 18
 43 1015 40 1018 40 1025 c 10
EndSplineSet
EndChar

StartChar: minute
Encoding: 8242 8242 433
Width: 470
VWidth: 1920
Flags: HW
LayerCount: 2
Fore
SplineSet
58 930 m 6
 56 930 l 6
 49 930 46 934 48 940 c 6
 220 1410 l 6
 222 1417 225 1420 232 1420 c 6
 262 1420 l 6
 269 1420 273 1416 270 1410 c 6
 70 940 l 6
 68 935 65 930 58 930 c 6
EndSplineSet
EndChar

StartChar: Euro
Encoding: 8364 8364 435
Width: 1405
VWidth: 1920
Flags: HW
LayerCount: 2
Fore
SplineSet
10 555 m 14
 10 570 l 22
 10 577 13 580 20 580 c 14
 790 580 l 22
 797 580 800 577 800 570 c 14
 800 555 l 22
 800 548 797 545 790 545 c 14
 20 545 l 22
 13 545 10 548 10 555 c 14
10 825 m 14
 10 840 l 22
 10 847 13 850 20 850 c 14
 790 850 l 22
 797 850 800 847 800 840 c 14
 800 825 l 22
 800 818 797 815 790 815 c 14
 20 815 l 22
 13 815 10 818 10 825 c 14
1190 348 m 256
 1168 126 1032 -35 715 -35 c 256
 328 -35 180 238 180 618 c 258
 180 783 l 258
 180 1163 328 1435 715 1435 c 256
 1052 1435 1141 1283 1150 1133 c 256
 1151 1124 1147 1123 1140 1123 c 258
 1121 1123 l 258
 1114 1123 1110 1124 1110 1133 c 256
 1108 1259 1042 1405 715 1405 c 256
 348 1405 210 1133 210 793 c 258
 210 608 l 258
 210 248 358 -5 715 -5 c 256
 1022 -5 1143 155 1150 348 c 256
 1150 357 1153 358 1160 358 c 258
 1180 358 l 258
 1187 358 1191 357 1190 348 c 256
EndSplineSet
EndChar

StartChar: uni2116
Encoding: 8470 8470 436
Width: 2180
VWidth: 1920
Flags: HW
LayerCount: 2
Fore
SplineSet
1450 10 m 10
 1450 25 l 22
 1450 32 1453 35 1460 35 c 14
 2050 35 l 22
 2057 35 2060 32 2060 25 c 14
 2060 10 l 18
 2060 3 2057 0 2050 0 c 10
 1460 0 l 18
 1453 0 1450 3 1450 10 c 10
EndSplineSet
Refer: 132 8304 N 1 0 0 1 1370 -295 2
Refer: 25 78 N 1 0 0 1 0 0 2
EndChar

StartChar: trademark
Encoding: 8482 8482 437
Width: 1722
VWidth: 1920
Flags: HW
LayerCount: 2
Fore
SplineSet
86 1400 m 2
 728 1400 l 2
 732 1400 734 1398 734 1394 c 2
 734 1388 l 2
 734 1384 732 1382 728 1382 c 2
 416 1382 l 257
 416 566 l 2
 416 562 414 560 410 560 c 2
 404 560 l 2
 400 560 398 562 398 566 c 2
 398 1382 l 257
 86 1382 l 2
 82 1382 80 1384 80 1388 c 2
 80 1394 l 2
 80 1398 82 1400 86 1400 c 2
912 1364 m 257
 912 566 l 2
 912 562 910 560 906 560 c 2
 900 560 l 2
 896 560 894 562 894 566 c 2
 894 1394 l 2
 894 1398 896 1400 900 1400 c 2
 912 1400 l 2
 916 1400 918 1398 920 1394 c 2
 1254 583 l 257
 1558 1394 l 2
 1560 1398 1562 1400 1566 1400 c 2
 1578 1400 l 2
 1582 1400 1584 1398 1584 1394 c 2
 1584 566 l 2
 1584 562 1582 560 1578 560 c 2
 1572 560 l 2
 1568 560 1566 562 1566 566 c 2
 1566 1364 l 257
 1268 566 l 2
 1266 562 1264 560 1260 560 c 2
 1248 560 l 2
 1244 560 1242 562 1240 566 c 2
 912 1364 l 257
EndSplineSet
EndChar

StartChar: partialdiff
Encoding: 8706 8706 438
Width: 1104
VWidth: 1920
Flags: HW
LayerCount: 2
Fore
SplineSet
529 855 m 256
 299 855 150 700 150 467 c 258
 150 347 l 258
 150 137 321 -5 600 -5 c 256
 907 -5 999 302 999 472 c 258
 999 648 l 258
 999 934 689 1270 236 1450 c 4
 226 1454 224 1458 228 1465 c 2
 234 1475 l 2
 238 1483 239 1485 252 1480 c 0
 626 1337 1034 999 1034 623 c 258
 1034 537 l 258
 1034 237 917 -35 600 -35 c 256
 308 -35 120 109 120 357 c 258
 120 467 l 258
 120 711 272 885 529 885 c 256
 766 885 1009 716 1009 552 c 257
 999 372 l 257
 999 502 l 258
 999 685 789 855 529 855 c 256
EndSplineSet
EndChar

StartChar: summation
Encoding: 8721 8721 439
Width: 1170
VWidth: 1920
Flags: HW
LayerCount: 2
Fore
SplineSet
899 505 m 2
 132 -330 l 1
 1108 -330 l 2
 1115 -330 1118 -333 1118 -340 c 2
 1118 -350 l 2
 1118 -357 1115 -360 1108 -360 c 2
 78 -360 l 2
 71 -360 69 -358 75 -350 c 2
 872 520 l 5
 75 1390 l 2
 69 1398 71 1400 78 1400 c 2
 1108 1400 l 2
 1115 1400 1118 1397 1118 1390 c 2
 1118 1380 l 2
 1118 1373 1115 1370 1108 1370 c 2
 132 1370 l 1
 899 535 l 2
 907 523 907 517 899 505 c 2
EndSplineSet
EndChar

StartChar: minus
Encoding: 8722 8722 440
Width: 1170
Flags: HW
LayerCount: 2
Fore
SplineSet
130 525 m 14
 130 540 l 22
 130 547 133 550 140 550 c 14
 1030 550 l 22
 1037 550 1040 547 1040 540 c 14
 1040 525 l 22
 1040 518 1037 515 1030 515 c 14
 140 515 l 22
 133 515 130 518 130 525 c 14
EndSplineSet
EndChar

StartChar: integral
Encoding: 8747 8747 441
Width: 445
VWidth: 1920
Flags: HW
LayerCount: 2
Fore
SplineSet
238 -98 m 2
 238 -305 197 -378 -91 -351 c 0
 -99 -350 -102 -347 -102 -340 c 2
 -102 -330 l 6
 -102 -323 -99 -320 -92 -321 c 4
 187 -359 208 -265 208 -78 c 6
 208 1188 l 2
 208 1395 239 1469 526 1441 c 0
 535 1440 538 1437 538 1430 c 2
 538 1410 l 2
 538 1403 535 1401 522 1402 c 0
 247 1427 238 1353 238 1168 c 2
 238 -98 l 2
EndSplineSet
EndChar

StartChar: radical
Encoding: 8730 8730 443
Width: 1055
VWidth: 1920
Flags: HMW
LayerCount: 2
Fore
SplineSet
300 1050 m 2
 307 1050 311 1046 313 1040 c 2
 606 4 l 5
 943 1590 l 2
 943 1597 946 1600 953 1600 c 2
 978 1600 l 2
 985 1600 989 1597 988 1590 c 2
 611 -143 l 2
 609 -151 607 -151 604 -143 c 2
 279 1020 l 1
 38 1020 l 2
 31 1020 28 1023 28 1030 c 2
 28 1040 l 2
 28 1047 31 1050 38 1050 c 2
 300 1050 l 2
EndSplineSet
EndChar

StartChar: infinity
Encoding: 8734 8734 444
Width: 1450
Flags: HMW
LayerCount: 2
Fore
SplineSet
382 301 m 0
 182 301 64 471 64 665 c 0
 64 859 182 1025 382 1025 c 0
 536 1025 638 855 702 695 c 1
 766 855 866 1025 1020 1025 c 0
 1220 1025 1336 859 1336 665 c 0
 1336 471 1220 301 1020 301 c 0
 866 301 746 471 702 631 c 1
 636 471 536 301 382 301 c 0
382 331 m 4
 540 331 632 541 686 665 c 1
 636 787 540 995 382 995 c 4
 202 995 94 835 94 665 c 0
 94 507 202 331 382 331 c 4
1020 331 m 4
 1210 331 1306 507 1306 665 c 0
 1306 825 1210 995 1020 995 c 4
 862 995 766 787 716 665 c 1
 746 543 862 331 1020 331 c 4
EndSplineSet
EndChar

StartChar: product
Encoding: 8719 8719 445
Width: 1380
VWidth: 1920
Flags: HW
LayerCount: 2
Fore
SplineSet
1170 1400 m 6
 1177 1400 1180 1397 1180 1390 c 6
 1180 10 l 6
 1180 3 1177 0 1170 0 c 6
 1160 0 l 6
 1153 0 1150 3 1150 10 c 6
 1150 1370 l 261
 230 1370 l 257
 230 10 l 2
 230 3 227 0 220 0 c 2
 210 0 l 2
 203 0 200 3 200 10 c 2
 200 1390 l 18
 200 1397 203 1400 210 1400 c 10
 1170 1400 l 6
EndSplineSet
EndChar

StartChar: uni2219
Encoding: 8729 8729 446
Width: 540
Flags: HW
LayerCount: 2
Fore
SplineSet
121 675 m 0
 121 763 182 825 270 825 c 0
 358 825 419 763 419 675 c 0
 419 587 363 525 275 525 c 0
 187 525 121 587 121 675 c 0
EndSplineSet
EndChar

StartChar: approxequal
Encoding: 8776 8776 447
Width: 1180
VWidth: 1920
Flags: HW
LayerCount: 2
Fore
SplineSet
402 429 m 256
 280 429 183 320 180 207 c 0
 180 201 177 198 170 198 c 2
 160 198 l 2
 153 198 150 201 150 207 c 0
 154 345 261 459 402 459 c 256
 581 459 627 202 779 202 c 256
 901 202 998 321 1001 423 c 0
 1001 430 1004 433 1011 433 c 2
 1020 433 l 2
 1027 433 1030 430 1030 423 c 0
 1026 285 919 172 779 172 c 256
 600 172 574 429 402 429 c 256
402 799 m 260
 280 799 183 690 180 577 c 4
 180 571 177 568 170 568 c 6
 160 568 l 6
 153 568 150 571 150 577 c 4
 154 715 261 829 402 829 c 260
 581 829 627 572 779 572 c 260
 901 572 998 691 1001 793 c 4
 1001 800 1004 803 1011 803 c 6
 1020 803 l 6
 1027 803 1030 800 1030 793 c 4
 1026 655 919 542 779 542 c 260
 600 542 574 799 402 799 c 260
EndSplineSet
EndChar

StartChar: notequal
Encoding: 8800 8800 448
Width: 1180
VWidth: 1920
Flags: HW
LayerCount: 2
Fore
SplineSet
1008 960 m 2
 1010 958 l 2
 1015 953 1015 949 1010 944 c 2
 186 40 l 2
 181 35 177 35 172 40 c 2
 170 42 l 6
 165 47 165 51 170 56 c 6
 994 960 l 2
 999 965 1003 965 1008 960 c 2
EndSplineSet
Refer: 83 61 N 1 0 0 1 0 0 2
EndChar

StartChar: lessequal
Encoding: 8804 8804 449
Width: 1010
VWidth: 1920
Flags: HW
LayerCount: 2
Fore
SplineSet
110 10 m 10
 110 25 l 22
 110 32 113 35 120 35 c 14
 890 35 l 22
 897 35 900 32 900 25 c 14
 900 10 l 18
 900 3 897 0 890 0 c 10
 120 0 l 18
 113 0 110 3 110 10 c 10
EndSplineSet
Refer: 84 60 N 1 0 0 1 0 150 2
EndChar

StartChar: greaterequal
Encoding: 8805 8805 450
Width: 1010
VWidth: 1920
Flags: HW
LayerCount: 2
Fore
SplineSet
110 10 m 10
 110 25 l 22
 110 32 113 35 120 35 c 14
 890 35 l 22
 897 35 900 32 900 25 c 14
 900 10 l 18
 900 3 897 0 890 0 c 10
 120 0 l 18
 113 0 110 3 110 10 c 10
EndSplineSet
Refer: 85 62 N 1 0 0 1 0 150 2
EndChar

StartChar: lozenge
Encoding: 9674 9674 451
Width: 950
Flags: HW
LayerCount: 2
Fore
SplineSet
481 40 m 2
 81 702 l 2
 76 710 76 714 81 722 c 2
 481 1382 l 2
 487 1391 487 1392 493 1382 c 2
 869 722 l 2
 873 714 873 710 869 702 c 2
 493 40 l 2
 488 30 487 31 481 40 c 2
481 124 m 1
 833 712 l 5
 481 1300 l 1
 117 712 l 1
 481 124 l 1
EndSplineSet
EndChar

StartChar: uniF8EA
Encoding: 63722 63722 452
Width: 1088
VWidth: 1920
Flags: HW
LayerCount: 2
Fore
SplineSet
78 1400 m 6
 464 1400 l 6
 466 1400 467 1398 467 1396 c 6
 467 1393 l 6
 467 1391 466 1389 464 1389 c 6
 276 1389 l 261
 276 900 l 6
 276 898 275 896 273 896 c 6
 269 896 l 6
 267 896 266 898 266 900 c 6
 266 1389 l 261
 78 1389 l 6
 76 1389 75 1391 75 1393 c 6
 75 1396 l 6
 75 1398 76 1400 78 1400 c 6
574 1378 m 261
 574 900 l 6
 574 898 572 896 570 896 c 6
 567 896 l 6
 565 896 563 898 563 900 c 6
 563 1396 l 6
 563 1398 565 1400 567 1400 c 6
 574 1400 l 6
 576 1400 578 1398 579 1396 c 6
 779 910 l 261
 962 1396 l 6
 963 1398 964 1400 966 1400 c 6
 974 1400 l 6
 976 1400 977 1398 977 1396 c 6
 977 900 l 6
 977 898 976 896 974 896 c 6
 970 896 l 6
 968 896 966 898 966 900 c 6
 966 1378 l 261
 788 900 l 6
 787 898 785 896 783 896 c 6
 776 896 l 6
 774 896 772 898 771 900 c 6
 574 1378 l 261
EndSplineSet
EndChar

StartChar: uniF8E8
Encoding: 63720 63720 453
Width: 986
Flags: HW
LayerCount: 2
Fore
SplineSet
349 1259 m 261
 349 1027 l 261
 522 1027 l 262
 589 1027 650 1061 650 1129 c 262
 650 1141 l 262
 650 1217 607 1259 522 1259 c 262
 349 1259 l 261
522 1270 m 262
 611 1270 660 1224 660 1141 c 262
 660 1132 l 262
 660 1056 607 1021 522 1021 c 261
 522 1025 l 261
 614 1025 657 1003 657 917 c 262
 657 884 l 262
 657 843 667 799 684 774 c 4
 687 770 687 769 687 768 c 6
 687 767 l 6
 687 766 686 766 684 766 c 6
 680 766 l 6
 678 766 677 766 675 769 c 4
 655 804 645 838 645 884 c 262
 645 917 l 262
 645 1003 600 1019 522 1019 c 262
 349 1019 l 261
 349 769 l 6
 349 767 347 766 345 766 c 6
 342 766 l 6
 340 766 338 767 338 769 c 6
 338 1266 l 6
 338 1268 340 1270 342 1270 c 6
 522 1270 l 262
911 1016 m 4
 911 786 722 599 492 599 c 4
 262 599 75 786 75 1016 c 4
 75 1246 262 1435 492 1435 c 4
 722 1435 911 1246 911 1016 c 4
893 1016 m 4
 893 1237 713 1417 492 1417 c 4
 271 1417 93 1237 93 1016 c 4
 93 795 271 617 492 617 c 4
 713 617 893 795 893 1016 c 4
EndSplineSet
EndChar

StartChar: uniF8E9
Encoding: 63721 63721 454
Width: 986
Flags: HW
LayerCount: 2
Fore
SplineSet
681 945 m 260
 678 856 607 753 492 753 c 260
 353 753 296 851 296 988 c 262
 296 1048 l 262
 296 1185 353 1282 492 1282 c 260
 535 1282 669 1270 671 1116 c 260
 671 1113 669 1112 667 1112 c 262
 664 1112 l 262
 662 1112 660 1113 660 1116 c 260
 659 1212 599 1271 496 1271 c 260
 360 1271 307 1178 307 1048 c 262
 307 988 l 262
 307 858 360 764 496 764 c 260
 581 764 665 843 671 945 c 260
 671 948 672 949 674 949 c 262
 678 949 l 262
 680 949 681 948 681 945 c 260
911 1016 m 4
 911 786 722 599 492 599 c 4
 262 599 75 786 75 1016 c 4
 75 1246 262 1435 492 1435 c 4
 722 1435 911 1246 911 1016 c 4
893 1016 m 4
 893 1237 713 1417 492 1417 c 4
 271 1417 93 1237 93 1016 c 4
 93 795 271 617 492 617 c 4
 713 617 893 795 893 1016 c 4
EndSplineSet
EndChar

StartChar: uni1E9E
Encoding: 7838 7838 457
Width: 1380
VWidth: 1920
Flags: HW
LayerCount: 2
Fore
SplineSet
240 1005 m 2
 240 1289 397 1434 687 1434 c 0
 958 1434 1109 1329 1209 1191 c 0
 1222 1173 1225 1170 1211 1156 c 2
 752 692 l 1
 921 643 1222 569 1222 348 c 0
 1222 124 1128 -35 859 -35 c 0
 751 -35 653 -15 607 16 c 0
 585 31 583 26 583 35 c 2
 583 45 l 2
 583 56 586 59 605 48 c 0
 648 22 767 -5 859 -5 c 0
 1114 -5 1192 151 1192 348 c 0
 1192 545 908 622 732 672 c 0
 712 678 708 681 724 697 c 2
 1190 1173 l 1
 1087 1305 965 1404 687 1404 c 0
 418 1404 275 1278 275 985 c 2
 275 10 l 2
 275 3 272 0 265 0 c 2
 250 0 l 2
 243 0 240 3 240 10 c 2
 240 1005 l 2
EndSplineSet
EndChar
